<svg xmlns="http://www.w3.org/2000/svg" width="48" height="32" viewBox="0 0 48 32"><defs><style>.a{fill:none;stroke:#000;fill-rule:evenodd;}</style></defs><path class="a" d="M30.5,29l11.6-3.5s5.4-1.2,5.4,1.8c0,2.5-2.4,3.5-4.1,4.3-6,2.7-15,7-15,7A27.365,27.365,0,0,1,19,40.5H.5v-9c5,0,3.6-.8,8-3a20.707,20.707,0,0,1,8.9-2H28.1A2.336,2.336,0,0,1,30.5,29a2.336,2.336,0,0,1-2.4,2.5H15m4-11a3,3,0,1,1-6,0h0l-1.959-.142a1.629,1.629,0,0,1-1.541-1.6l.4-3.622a2,2,0,0,1,1.5-1.8q.8-.2,1.6-.337c1.5-.25,4.5-2.25,6.5-3a17.169,17.169,0,0,1,5-.5A14.418,14.418,0,0,1,29,10a20.693,20.693,0,0,1,4.25,3.5,32.529,32.529,0,0,1,5.25,1,4.343,4.343,0,0,1,2.75,2.25A7.584,7.584,0,0,1,41.5,19v.25a1.25,1.25,0,0,1-1.25,1.25H38a3,3,0,0,1-6,0H19Z" transform="translate(0 -9)"/></svg>