<svg xmlns="http://www.w3.org/2000/svg" width="39" height="30" viewBox="0 0 39 30"><defs><style>.a{fill:none;stroke:#000;fill-rule:evenodd;}</style></defs><path class="a" d="M2.5,23V37a1.421,1.421,0,0,0,1.326,1.5H8.244A1.421,1.421,0,0,0,9.57,37V35.5H33.43V37a1.421,1.421,0,0,0,1.326,1.5h4.419A1.421,1.421,0,0,0,40.5,37V23h0l-3.977-4.5q-1.237-2.75-2.209-4.5a36.558,36.558,0,0,0-2.651-4,101.026,101.026,0,0,0-10.144-.5q-5.187,0-10.182.5a36.559,36.559,0,0,0-2.651,4q-.972,1.75-2.209,4.5Zm11.047,4,1.767-2.5H27.686L29.453,27q-1.767,5.5-2.651,5.5H16.2Q15.314,32.5,13.547,27ZM6.256,18.5H36.744m1.988,5.075a5.856,5.856,0,0,1-.221,1.978c-.221.522-.663,1.022-1.1,1.022H35.64a14.145,14.145,0,0,1-4.2-1.5,3.921,3.921,0,0,1-.663-1q2.344-.35,3.977-.5A26.211,26.211,0,0,1,38.733,23.575Zm-34.465,0a26.211,26.211,0,0,1,3.977,0q1.633.15,3.977.5a3.921,3.921,0,0,1-.663,1,14.144,14.144,0,0,1-4.2,1.5H5.593c-.442,0-.884-.5-1.1-1.022A5.856,5.856,0,0,1,4.267,23.575Z" transform="translate(-2 -9)"/></svg>