<svg xmlns="http://www.w3.org/2000/svg" width="69" height="69" viewBox="0 0 69 69"><defs><style>.a{fill:#ffe6e9;}.a,.b{stroke:#000;}.b,.d{fill:none;}.b{fill-rule:evenodd;}.c{stroke:none;}</style></defs><g transform="translate(0 -4642)"><g class="a" transform="translate(0 4642)"><circle class="c" cx="34.5" cy="34.5" r="34.5"/><circle class="d" cx="34.5" cy="34.5" r="34"/></g><path class="b" d="M14.5,3.5h19a2.006,2.006,0,0,1,2,2v37a2.006,2.006,0,0,1-2,2h-19a2.006,2.006,0,0,1-2-2V5.5A2.006,2.006,0,0,1,14.5,3.5Zm-2,35h23M24,42.4a.9.9,0,1,0-.9-.9A.9.9,0,0,0,24,42.4ZM21,7.5h6" transform="translate(10.049 4651)"/></g></svg>