<svg xmlns="http://www.w3.org/2000/svg" width="36.5" height="42" viewBox="0 0 36.5 42"><defs><style>.a{fill:none;stroke:#000;fill-rule:evenodd;}</style></defs><path class="a" d="M6,44.5H42m-5.5-40v8a14.533,14.533,0,0,0,1.7,7.4C40.2,23.5,42,26,42,30s-1.7,10.5-8,10.5M32,10l4.5-5.5L41,10M24.5,4.5v8a14.533,14.533,0,0,0,1.7,7.4C28.2,23.5,30,26,30,30s-1.7,10.5-8,10.5M20,10l4.5-5.5L29,10M18,13.5h0Zm0-3h0Zm0-3h0Zm-3.5,13h0Zm0,7.5V5.5a2,2,0,0,0-4,0V28.8a6.018,6.018,0,1,0,8,5.7,6.189,6.189,0,0,0-4-5.7Z" transform="translate(-6 -3)"/></svg>