<svg xmlns="http://www.w3.org/2000/svg" width="35" height="42" viewBox="0 0 35 42"><defs><style>.a{fill:none;stroke:#000;fill-rule:evenodd;}</style></defs><path class="a" d="M17.5,33.5l2,2,2-2-1-3,1-2-1-2,1-2-1-2v-2c2-.75,3-2,3-4.5a4.5,4.5,0,1,0-9,0c0,2.5,1,3.75,3,4.5Zm1.5-18a.5.5,0,1,0-.5-.5A.5.5,0,0,0,19,15.5Zm16,13A6.8,6.8,0,0,0,36.5,24,6.8,6.8,0,0,0,35,19.5m2.8,14A14,14,0,0,0,41.5,24a13.373,13.373,0,0,0-3.7-9.5M9.5,3.5h19a2.006,2.006,0,0,1,2,2v37a2.006,2.006,0,0,1-2,2H9.5a2.006,2.006,0,0,1-2-2V5.5A2.006,2.006,0,0,1,9.5,3.5Zm-2,35h23M19,42.4a.9.9,0,1,0-.9-.9A.9.9,0,0,0,19,42.4ZM16,7.5h6" transform="translate(-7 -3)"/></svg>