<svg xmlns="http://www.w3.org/2000/svg" width="1003.412" height="212.619" viewBox="0 0 1003.412 212.619">
  <g id="Group_11093" data-name="Group 11093" transform="translate(-10058 2267.619)">
    <rect id="Rectangle_2264" data-name="Rectangle 2264" width="890" height="50" transform="translate(10058 -2237)" fill="#11154a"/>
    <rect id="Rectangle_2265" data-name="Rectangle 2265" width="7" height="50" transform="translate(10058 -2105)" fill="#11154a"/>
    <path id="Path_11091" data-name="Path 11091" d="M9.82-10.1h1.8a5.034,5.034,0,0,0-.45-2.03,3.955,3.955,0,0,0-1.12-1.41,4.62,4.62,0,0,0-1.65-.82,7.63,7.63,0,0,0-2.04-.26,7.325,7.325,0,0,0-1.91.25,5.252,5.252,0,0,0-1.66.76,3.847,3.847,0,0,0-1.17,1.3,3.784,3.784,0,0,0-.44,1.87,3.122,3.122,0,0,0,.39,1.63A3.162,3.162,0,0,0,2.61-7.75a6.044,6.044,0,0,0,1.47.66q.82.25,1.67.44t1.67.37a7.614,7.614,0,0,1,1.47.47,2.866,2.866,0,0,1,1.04.75,1.792,1.792,0,0,1,.39,1.2A2.336,2.336,0,0,1,10-2.58a2.329,2.329,0,0,1-.84.79,3.8,3.8,0,0,1-1.17.41,7.093,7.093,0,0,1-1.29.12,6.1,6.1,0,0,1-1.56-.2,3.882,3.882,0,0,1-1.33-.62,3.182,3.182,0,0,1-.92-1.07A3.225,3.225,0,0,1,2.54-4.7H.74a5.022,5.022,0,0,0,.47,2.25A4.314,4.314,0,0,0,2.49-.89,5.606,5.606,0,0,0,4.37.02a8.373,8.373,0,0,0,2.27.3A8.681,8.681,0,0,0,8.61.09,5.7,5.7,0,0,0,10.4-.65a4.2,4.2,0,0,0,1.31-1.32,3.586,3.586,0,0,0,.51-1.95,3.581,3.581,0,0,0-.39-1.76,3.474,3.474,0,0,0-1.04-1.16,5.508,5.508,0,0,0-1.47-.73q-.82-.27-1.67-.47T5.98-8.41a8.745,8.745,0,0,1-1.47-.43,2.892,2.892,0,0,1-1.04-.67,1.489,1.489,0,0,1-.39-1.07,2.319,2.319,0,0,1,.27-1.17,2.1,2.1,0,0,1,.72-.75,3.133,3.133,0,0,1,1.03-.4,5.809,5.809,0,0,1,1.18-.12,4.032,4.032,0,0,1,2.43.69A2.975,2.975,0,0,1,9.82-10.1Zm11.6,3.94H15.48a3.541,3.541,0,0,1,.26-1.13,3.014,3.014,0,0,1,.6-.93,2.748,2.748,0,0,1,.91-.63,2.96,2.96,0,0,1,1.19-.23,2.908,2.908,0,0,1,1.17.23,2.944,2.944,0,0,1,.92.62,2.914,2.914,0,0,1,.62.93A3.478,3.478,0,0,1,21.42-6.16Zm1.64,2.88H21.38a2.417,2.417,0,0,1-.91,1.52,2.942,2.942,0,0,1-1.77.5,3.521,3.521,0,0,1-1.46-.28,2.862,2.862,0,0,1-1.02-.75,2.922,2.922,0,0,1-.58-1.08,4.1,4.1,0,0,1-.16-1.29h7.74a8.232,8.232,0,0,0-.17-1.98,5.732,5.732,0,0,0-.76-1.92,4.529,4.529,0,0,0-1.46-1.45,4.242,4.242,0,0,0-2.29-.57,4.7,4.7,0,0,0-1.95.4,4.583,4.583,0,0,0-1.54,1.12,5.162,5.162,0,0,0-1.01,1.7,6.222,6.222,0,0,0-.36,2.16,8.288,8.288,0,0,0,.35,2.18,4.758,4.758,0,0,0,.93,1.72A4.238,4.238,0,0,0,16.49-.18a5.311,5.311,0,0,0,2.15.4,4.694,4.694,0,0,0,2.92-.88A4.132,4.132,0,0,0,23.06-3.28Zm4.28-7.06v-3.1h-1.7v3.1H23.88v1.5h1.76v6.58a3.929,3.929,0,0,0,.14,1.16,1.41,1.41,0,0,0,.43.68,1.66,1.66,0,0,0,.76.33A6.1,6.1,0,0,0,28.1,0h1.3V-1.5h-.78a5.67,5.67,0,0,1-.65-.03.84.84,0,0,1-.39-.13.494.494,0,0,1-.19-.28,1.855,1.855,0,0,1-.05-.48V-8.84H29.4v-1.5ZM39.84,0V-10.34h-1.7V-4.5a4.189,4.189,0,0,1-.19,1.29,2.93,2.93,0,0,1-.57,1.03,2.531,2.531,0,0,1-.95.68,3.465,3.465,0,0,1-1.35.24,2.081,2.081,0,0,1-1.54-.56,2.054,2.054,0,0,1-.56-1.52v-7h-1.7v6.8a6.4,6.4,0,0,0,.17,1.53,2.9,2.9,0,0,0,.59,1.19,2.711,2.711,0,0,0,1.1.77,4.637,4.637,0,0,0,1.7.27,4.134,4.134,0,0,0,1.98-.45A3.474,3.474,0,0,0,38.2-1.64h.04V0Zm2.62-10.34V3.94h1.7V-1.38h.04a2.739,2.739,0,0,0,.69.77,3.634,3.634,0,0,0,.87.49,4.722,4.722,0,0,0,.93.26,5.11,5.11,0,0,0,.85.08A4.8,4.8,0,0,0,49.61-.2a4.149,4.149,0,0,0,1.48-1.15,4.9,4.9,0,0,0,.88-1.71,7.3,7.3,0,0,0,.29-2.08,7.068,7.068,0,0,0-.3-2.08,5.256,5.256,0,0,0-.89-1.73,4.251,4.251,0,0,0-1.48-1.19,4.664,4.664,0,0,0-2.09-.44,4.927,4.927,0,0,0-1.98.39A2.545,2.545,0,0,0,44.2-8.94h-.04v-1.4Zm8,5.08a6.8,6.8,0,0,1-.16,1.48,3.915,3.915,0,0,1-.52,1.28,2.733,2.733,0,0,1-.95.9,2.907,2.907,0,0,1-1.47.34,3.155,3.155,0,0,1-1.5-.33,2.911,2.911,0,0,1-1.01-.87,3.638,3.638,0,0,1-.57-1.25,5.959,5.959,0,0,1-.18-1.47,6,6,0,0,1,.17-1.42,3.721,3.721,0,0,1,.55-1.25,2.926,2.926,0,0,1,.98-.89,2.919,2.919,0,0,1,1.46-.34,3.036,3.036,0,0,1,1.43.32,2.842,2.842,0,0,1,1,.86,3.805,3.805,0,0,1,.58,1.23A5.287,5.287,0,0,1,50.46-5.26ZM70.06,0l3.3-10.34H71.6L69.28-1.88h-.04l-2.16-8.46H65.22L63.14-1.88H63.1l-2.34-8.46H58.88L62.2,0h1.84l2.08-8.22h.04L68.26,0Zm6.72-12.2v-2.08h-1.7v2.08Zm-1.7,1.86V0h1.7V-10.34Zm6.7,0v-3.1h-1.7v3.1H78.32v1.5h1.76v6.58a3.929,3.929,0,0,0,.14,1.16,1.41,1.41,0,0,0,.43.68,1.66,1.66,0,0,0,.76.33A6.1,6.1,0,0,0,82.54,0h1.3V-1.5h-.78a5.67,5.67,0,0,1-.65-.03.84.84,0,0,1-.39-.13.494.494,0,0,1-.19-.28,1.855,1.855,0,0,1-.05-.48V-8.84h2.06v-1.5Zm3.94-3.94V0h1.7V-5.84a4.189,4.189,0,0,1,.19-1.29,2.93,2.93,0,0,1,.57-1.03,2.531,2.531,0,0,1,.95-.68,3.465,3.465,0,0,1,1.35-.24,2.081,2.081,0,0,1,1.54.56A2.054,2.054,0,0,1,92.58-7V0h1.7V-6.8a6.4,6.4,0,0,0-.17-1.53,2.9,2.9,0,0,0-.59-1.19,2.8,2.8,0,0,0-1.1-.78,4.487,4.487,0,0,0-1.7-.28,4.747,4.747,0,0,0-.95.1,4.2,4.2,0,0,0-.94.31,3.183,3.183,0,0,0-.81.54,2.262,2.262,0,0,0-.56.81h-.04v-5.46Zm16.74,3.94V3.94h1.7V-1.38h.04a2.739,2.739,0,0,0,.69.77,3.634,3.634,0,0,0,.87.49,4.722,4.722,0,0,0,.93.26,5.11,5.11,0,0,0,.85.08,4.8,4.8,0,0,0,2.07-.42,4.149,4.149,0,0,0,1.48-1.15,4.9,4.9,0,0,0,.88-1.71,7.294,7.294,0,0,0,.29-2.08,7.068,7.068,0,0,0-.3-2.08,5.256,5.256,0,0,0-.89-1.73,4.251,4.251,0,0,0-1.48-1.19,4.664,4.664,0,0,0-2.09-.44,4.927,4.927,0,0,0-1.98.39,2.545,2.545,0,0,0-1.32,1.25h-.04v-1.4Zm8,5.08a6.8,6.8,0,0,1-.16,1.48,3.915,3.915,0,0,1-.52,1.28,2.733,2.733,0,0,1-.95.9,2.907,2.907,0,0,1-1.47.34,3.155,3.155,0,0,1-1.5-.33,2.912,2.912,0,0,1-1.01-.87,3.638,3.638,0,0,1-.57-1.25,5.959,5.959,0,0,1-.18-1.47,6,6,0,0,1,.17-1.42,3.721,3.721,0,0,1,.55-1.25,2.926,2.926,0,0,1,.98-.89,2.919,2.919,0,0,1,1.46-.34,3.036,3.036,0,0,1,1.43.32,2.842,2.842,0,0,1,1,.86,3.805,3.805,0,0,1,.58,1.23A5.287,5.287,0,0,1,110.46-5.26Zm3.74-5.08V0h1.7V-4.6a7.069,7.069,0,0,1,.2-1.77,3.393,3.393,0,0,1,.64-1.31,2.743,2.743,0,0,1,1.16-.82,4.808,4.808,0,0,1,1.74-.28v-1.8a3.821,3.821,0,0,0-2.28.56,4.605,4.605,0,0,0-1.52,1.86h-.04v-2.18Zm7.6,5.18a5.144,5.144,0,0,1,.25-1.67,3.6,3.6,0,0,1,.69-1.23,2.938,2.938,0,0,1,1.03-.76,3.066,3.066,0,0,1,1.25-.26,3.066,3.066,0,0,1,1.25.26,2.938,2.938,0,0,1,1.03.76,3.6,3.6,0,0,1,.69,1.23,5.144,5.144,0,0,1,.25,1.67,5.144,5.144,0,0,1-.25,1.67,3.494,3.494,0,0,1-.69,1.22,2.994,2.994,0,0,1-1.03.75,3.066,3.066,0,0,1-1.25.26,3.066,3.066,0,0,1-1.25-.26,2.994,2.994,0,0,1-1.03-.75,3.494,3.494,0,0,1-.69-1.22A5.144,5.144,0,0,1,121.8-5.16Zm-1.8,0a6.792,6.792,0,0,0,.32,2.12,4.839,4.839,0,0,0,.96,1.71,4.416,4.416,0,0,0,1.58,1.14,5.358,5.358,0,0,0,2.16.41,5.34,5.34,0,0,0,2.17-.41,4.437,4.437,0,0,0,1.57-1.14,4.839,4.839,0,0,0,.96-1.71,6.792,6.792,0,0,0,.32-2.12,6.887,6.887,0,0,0-.32-2.13,4.826,4.826,0,0,0-.96-1.72,4.545,4.545,0,0,0-1.57-1.15,5.229,5.229,0,0,0-2.17-.42,5.247,5.247,0,0,0-2.16.42,4.522,4.522,0,0,0-1.58,1.15,4.826,4.826,0,0,0-.96,1.72A6.887,6.887,0,0,0,120-5.16Zm12.74-3.68V0h1.7V-8.84h2v-1.5h-2v-1.44a1.059,1.059,0,0,1,.34-.92,1.647,1.647,0,0,1,.96-.24,4.209,4.209,0,0,1,.48.03,2.108,2.108,0,0,1,.48.11v-1.48a2.933,2.933,0,0,0-.55-.12,4.352,4.352,0,0,0-.55-.04,3.107,3.107,0,0,0-2.13.65,2.424,2.424,0,0,0-.73,1.91v1.54H131v1.5Zm12.4,2.68H139.2a3.541,3.541,0,0,1,.26-1.13,3.014,3.014,0,0,1,.6-.93,2.748,2.748,0,0,1,.91-.63,2.96,2.96,0,0,1,1.19-.23,2.908,2.908,0,0,1,1.17.23,2.944,2.944,0,0,1,.92.62,2.914,2.914,0,0,1,.62.93A3.478,3.478,0,0,1,145.14-6.16Zm1.64,2.88H145.1a2.417,2.417,0,0,1-.91,1.52,2.942,2.942,0,0,1-1.77.5,3.521,3.521,0,0,1-1.46-.28,2.862,2.862,0,0,1-1.02-.75,2.922,2.922,0,0,1-.58-1.08,4.1,4.1,0,0,1-.16-1.29h7.74a8.232,8.232,0,0,0-.17-1.98,5.732,5.732,0,0,0-.76-1.92,4.529,4.529,0,0,0-1.46-1.45,4.242,4.242,0,0,0-2.29-.57,4.7,4.7,0,0,0-1.95.4,4.583,4.583,0,0,0-1.54,1.12,5.162,5.162,0,0,0-1.01,1.7,6.222,6.222,0,0,0-.36,2.16,8.287,8.287,0,0,0,.35,2.18,4.758,4.758,0,0,0,.93,1.72,4.238,4.238,0,0,0,1.53,1.12,5.311,5.311,0,0,0,2.15.4,4.694,4.694,0,0,0,2.92-.88A4.132,4.132,0,0,0,146.78-3.28Zm2.96.02h-1.7a3.741,3.741,0,0,0,.4,1.63,3.009,3.009,0,0,0,.96,1.08,4.023,4.023,0,0,0,1.38.59,7.274,7.274,0,0,0,1.64.18,8.4,8.4,0,0,0,1.57-.15,4.264,4.264,0,0,0,1.42-.53,3.048,3.048,0,0,0,1.02-1,2.88,2.88,0,0,0,.39-1.56,2.438,2.438,0,0,0-.29-1.24,2.589,2.589,0,0,0-.76-.83,4.076,4.076,0,0,0-1.08-.53,12.765,12.765,0,0,0-1.25-.34q-.6-.14-1.2-.27a6.922,6.922,0,0,1-1.08-.32,2.475,2.475,0,0,1-.79-.48.957.957,0,0,1-.31-.73,1.009,1.009,0,0,1,.2-.65,1.43,1.43,0,0,1,.52-.4,2.593,2.593,0,0,1,.71-.21,5.058,5.058,0,0,1,.77-.06,3.86,3.86,0,0,1,.83.09,2.544,2.544,0,0,1,.75.29,1.7,1.7,0,0,1,.56.53,1.721,1.721,0,0,1,.26.83h1.7a3.8,3.8,0,0,0-.4-1.57,2.691,2.691,0,0,0-.91-1,3.748,3.748,0,0,0-1.31-.52,8.164,8.164,0,0,0-1.62-.15,5.71,5.71,0,0,0-1.37.17,4.132,4.132,0,0,0-1.24.52,2.862,2.862,0,0,0-.9.91,2.477,2.477,0,0,0-.35,1.34,2.261,2.261,0,0,0,.5,1.56,3.374,3.374,0,0,0,1.25.87,8.457,8.457,0,0,0,1.63.48q.88.17,1.63.38a4.255,4.255,0,0,1,1.25.55,1.132,1.132,0,0,1,.5,1,1.253,1.253,0,0,1-.24.79,1.521,1.521,0,0,1-.61.47,3.079,3.079,0,0,1-.81.22,6.224,6.224,0,0,1-.84.06,5.039,5.039,0,0,1-1.01-.1,2.834,2.834,0,0,1-.88-.33,1.809,1.809,0,0,1-.63-.62A1.914,1.914,0,0,1,149.74-3.26Zm10,0h-1.7a3.741,3.741,0,0,0,.4,1.63,3.009,3.009,0,0,0,.96,1.08,4.023,4.023,0,0,0,1.38.59,7.274,7.274,0,0,0,1.64.18,8.4,8.4,0,0,0,1.57-.15,4.264,4.264,0,0,0,1.42-.53,3.048,3.048,0,0,0,1.02-1,2.88,2.88,0,0,0,.39-1.56,2.438,2.438,0,0,0-.29-1.24,2.589,2.589,0,0,0-.76-.83,4.076,4.076,0,0,0-1.08-.53,12.765,12.765,0,0,0-1.25-.34q-.6-.14-1.2-.27a6.922,6.922,0,0,1-1.08-.32,2.475,2.475,0,0,1-.79-.48.957.957,0,0,1-.31-.73,1.009,1.009,0,0,1,.2-.65,1.43,1.43,0,0,1,.52-.4,2.593,2.593,0,0,1,.71-.21,5.058,5.058,0,0,1,.77-.06,3.86,3.86,0,0,1,.83.09,2.544,2.544,0,0,1,.75.29,1.7,1.7,0,0,1,.56.53,1.721,1.721,0,0,1,.26.83h1.7a3.8,3.8,0,0,0-.4-1.57,2.691,2.691,0,0,0-.91-1,3.748,3.748,0,0,0-1.31-.52,8.164,8.164,0,0,0-1.62-.15,5.71,5.71,0,0,0-1.37.17,4.132,4.132,0,0,0-1.24.52,2.862,2.862,0,0,0-.9.91,2.477,2.477,0,0,0-.35,1.34,2.261,2.261,0,0,0,.5,1.56,3.374,3.374,0,0,0,1.25.87,8.457,8.457,0,0,0,1.63.48q.88.17,1.63.38a4.255,4.255,0,0,1,1.25.55,1.132,1.132,0,0,1,.5,1,1.253,1.253,0,0,1-.24.79,1.521,1.521,0,0,1-.61.47,3.079,3.079,0,0,1-.81.22,6.224,6.224,0,0,1-.84.06,5.039,5.039,0,0,1-1.01-.1,2.834,2.834,0,0,1-.88-.33,1.809,1.809,0,0,1-.63-.62A1.914,1.914,0,0,1,159.74-3.26ZM170.5-12.2v-2.08h-1.7v2.08Zm-1.7,1.86V0h1.7V-10.34Zm5.58,5.18a5.144,5.144,0,0,1,.25-1.67,3.6,3.6,0,0,1,.69-1.23,2.938,2.938,0,0,1,1.03-.76,3.066,3.066,0,0,1,1.25-.26,3.066,3.066,0,0,1,1.25.26,2.938,2.938,0,0,1,1.03.76,3.6,3.6,0,0,1,.69,1.23,5.144,5.144,0,0,1,.25,1.67,5.144,5.144,0,0,1-.25,1.67,3.494,3.494,0,0,1-.69,1.22,2.994,2.994,0,0,1-1.03.75,3.066,3.066,0,0,1-1.25.26,3.066,3.066,0,0,1-1.25-.26,2.994,2.994,0,0,1-1.03-.75,3.494,3.494,0,0,1-.69-1.22A5.144,5.144,0,0,1,174.38-5.16Zm-1.8,0a6.792,6.792,0,0,0,.32,2.12,4.839,4.839,0,0,0,.96,1.71,4.416,4.416,0,0,0,1.58,1.14,5.358,5.358,0,0,0,2.16.41,5.34,5.34,0,0,0,2.17-.41,4.437,4.437,0,0,0,1.57-1.14,4.839,4.839,0,0,0,.96-1.71,6.792,6.792,0,0,0,.32-2.12,6.887,6.887,0,0,0-.32-2.13,4.826,4.826,0,0,0-.96-1.72,4.545,4.545,0,0,0-1.57-1.15,5.229,5.229,0,0,0-2.17-.42,5.247,5.247,0,0,0-2.16.42,4.522,4.522,0,0,0-1.58,1.15,4.826,4.826,0,0,0-.96,1.72A6.887,6.887,0,0,0,172.58-5.16Zm12.04-5.18V0h1.7V-5.84a4.189,4.189,0,0,1,.19-1.29,2.93,2.93,0,0,1,.57-1.03,2.531,2.531,0,0,1,.95-.68,3.465,3.465,0,0,1,1.35-.24,2.081,2.081,0,0,1,1.54.56A2.054,2.054,0,0,1,191.48-7V0h1.7V-6.8a6.4,6.4,0,0,0-.17-1.53,2.9,2.9,0,0,0-.59-1.19,2.8,2.8,0,0,0-1.1-.78,4.487,4.487,0,0,0-1.7-.28,3.579,3.579,0,0,0-3.36,1.88h-.04v-1.64ZM204.9-.04a2.4,2.4,0,0,1-1.22.26,1.463,1.463,0,0,1-1.05-.37,1.608,1.608,0,0,1-.39-1.21,4.067,4.067,0,0,1-1.63,1.21,5.388,5.388,0,0,1-2.01.37,5.385,5.385,0,0,1-1.33-.16,3.092,3.092,0,0,1-1.09-.5,2.4,2.4,0,0,1-.73-.89,2.994,2.994,0,0,1-.27-1.33,3.037,3.037,0,0,1,.3-1.44,2.617,2.617,0,0,1,.79-.91,3.62,3.62,0,0,1,1.12-.53q.63-.18,1.29-.3.7-.14,1.33-.21a7.41,7.41,0,0,0,1.11-.2,1.849,1.849,0,0,0,.76-.38.928.928,0,0,0,.28-.73,1.7,1.7,0,0,0-.21-.9,1.44,1.44,0,0,0-.54-.52,2.2,2.2,0,0,0-.74-.24,5.588,5.588,0,0,0-.81-.06,3.6,3.6,0,0,0-1.8.41,1.74,1.74,0,0,0-.78,1.55h-1.7a3.672,3.672,0,0,1,.4-1.62,3.033,3.033,0,0,1,.96-1.07,4.028,4.028,0,0,1,1.37-.59,7.235,7.235,0,0,1,1.65-.18,9.679,9.679,0,0,1,1.39.1,3.633,3.633,0,0,1,1.25.41,2.4,2.4,0,0,1,.9.87,2.784,2.784,0,0,1,.34,1.46v5.32a3.979,3.979,0,0,0,.07.88q.07.28.47.28a1.684,1.684,0,0,0,.52-.1Zm-2.76-5.3a2.116,2.116,0,0,1-.84.35q-.52.11-1.09.18t-1.15.16a4.228,4.228,0,0,0-1.04.29,1.892,1.892,0,0,0-.75.57,1.6,1.6,0,0,0-.29,1.01,1.382,1.382,0,0,0,.17.71,1.417,1.417,0,0,0,.44.47,1.846,1.846,0,0,0,.63.26,3.5,3.5,0,0,0,.76.08,4.027,4.027,0,0,0,1.44-.23,3.029,3.029,0,0,0,.98-.58,2.288,2.288,0,0,0,.56-.76,1.922,1.922,0,0,0,.18-.77Zm4.44-8.94V0h1.7V-14.28ZM217.52-3.26h-1.7a3.741,3.741,0,0,0,.4,1.63,3.009,3.009,0,0,0,.96,1.08,4.023,4.023,0,0,0,1.38.59,7.274,7.274,0,0,0,1.64.18,8.4,8.4,0,0,0,1.57-.15,4.264,4.264,0,0,0,1.42-.53,3.048,3.048,0,0,0,1.02-1,2.88,2.88,0,0,0,.39-1.56,2.438,2.438,0,0,0-.29-1.24,2.589,2.589,0,0,0-.76-.83,4.076,4.076,0,0,0-1.08-.53,12.765,12.765,0,0,0-1.25-.34q-.6-.14-1.2-.27a6.922,6.922,0,0,1-1.08-.32,2.475,2.475,0,0,1-.79-.48.957.957,0,0,1-.31-.73,1.009,1.009,0,0,1,.2-.65,1.43,1.43,0,0,1,.52-.4,2.593,2.593,0,0,1,.71-.21,5.058,5.058,0,0,1,.77-.06,3.86,3.86,0,0,1,.83.09,2.544,2.544,0,0,1,.75.29,1.7,1.7,0,0,1,.56.53,1.721,1.721,0,0,1,.26.83h1.7a3.8,3.8,0,0,0-.4-1.57,2.691,2.691,0,0,0-.91-1,3.748,3.748,0,0,0-1.31-.52,8.164,8.164,0,0,0-1.62-.15,5.71,5.71,0,0,0-1.37.17,4.132,4.132,0,0,0-1.24.52,2.862,2.862,0,0,0-.9.91,2.477,2.477,0,0,0-.35,1.34,2.261,2.261,0,0,0,.5,1.56,3.374,3.374,0,0,0,1.25.87,8.457,8.457,0,0,0,1.63.48q.88.17,1.63.38a4.255,4.255,0,0,1,1.25.55,1.132,1.132,0,0,1,.5,1,1.253,1.253,0,0,1-.24.79,1.521,1.521,0,0,1-.61.47,3.079,3.079,0,0,1-.81.22,6.224,6.224,0,0,1-.84.06,5.039,5.039,0,0,1-1.01-.1,2.834,2.834,0,0,1-.88-.33,1.809,1.809,0,0,1-.63-.62A1.914,1.914,0,0,1,217.52-3.26Zm16.14-2.9h-5.94a3.541,3.541,0,0,1,.26-1.13,3.014,3.014,0,0,1,.6-.93,2.748,2.748,0,0,1,.91-.63,2.96,2.96,0,0,1,1.19-.23,2.908,2.908,0,0,1,1.17.23,2.944,2.944,0,0,1,.92.62,2.914,2.914,0,0,1,.62.93A3.478,3.478,0,0,1,233.66-6.16Zm1.64,2.88h-1.68a2.417,2.417,0,0,1-.91,1.52,2.942,2.942,0,0,1-1.77.5,3.521,3.521,0,0,1-1.46-.28,2.862,2.862,0,0,1-1.02-.75,2.922,2.922,0,0,1-.58-1.08,4.1,4.1,0,0,1-.16-1.29h7.74a8.232,8.232,0,0,0-.17-1.98,5.732,5.732,0,0,0-.76-1.92,4.529,4.529,0,0,0-1.46-1.45,4.242,4.242,0,0,0-2.29-.57,4.7,4.7,0,0,0-1.95.4,4.583,4.583,0,0,0-1.54,1.12,5.162,5.162,0,0,0-1.01,1.7,6.222,6.222,0,0,0-.36,2.16,8.287,8.287,0,0,0,.35,2.18,4.758,4.758,0,0,0,.93,1.72,4.238,4.238,0,0,0,1.53,1.12,5.311,5.311,0,0,0,2.15.4,4.694,4.694,0,0,0,2.92-.88A4.132,4.132,0,0,0,235.3-3.28Zm1.86-7.06V0h1.7V-4.6a7.069,7.069,0,0,1,.2-1.77,3.393,3.393,0,0,1,.64-1.31,2.743,2.743,0,0,1,1.16-.82,4.808,4.808,0,0,1,1.74-.28v-1.8a3.821,3.821,0,0,0-2.28.56,4.605,4.605,0,0,0-1.52,1.86h-.04v-2.18ZM248.54,0l3.78-10.34h-1.78l-2.82,8.62h-.04l-2.9-8.62h-1.9L246.72,0Zm7.14-12.2v-2.08h-1.7v2.08Zm-1.7,1.86V0h1.7V-10.34Zm11.36,3.32h1.76a4.087,4.087,0,0,0-.48-1.59,3.549,3.549,0,0,0-.97-1.11,4.018,4.018,0,0,0-1.36-.65,6.249,6.249,0,0,0-1.65-.21,5.005,5.005,0,0,0-2.14.43,4.271,4.271,0,0,0-1.53,1.18,5.019,5.019,0,0,0-.91,1.76,7.588,7.588,0,0,0-.3,2.17,6.967,6.967,0,0,0,.31,2.13,4.671,4.671,0,0,0,.92,1.67,4.053,4.053,0,0,0,1.52,1.08,5.386,5.386,0,0,0,2.09.38,4.492,4.492,0,0,0,3.13-1.04,4.762,4.762,0,0,0,1.43-2.96h-1.74a2.98,2.98,0,0,1-.87,1.86,2.782,2.782,0,0,1-1.97.66,2.815,2.815,0,0,1-1.38-.32,2.685,2.685,0,0,1-.94-.85,3.752,3.752,0,0,1-.53-1.21,5.75,5.75,0,0,1-.17-1.4,7.034,7.034,0,0,1,.16-1.51,3.786,3.786,0,0,1,.53-1.29,2.745,2.745,0,0,1,.99-.9,3.17,3.17,0,0,1,1.54-.34,2.58,2.58,0,0,1,1.72.54A2.591,2.591,0,0,1,265.34-7.02Zm10.9.86H270.3a3.541,3.541,0,0,1,.26-1.13,3.014,3.014,0,0,1,.6-.93,2.748,2.748,0,0,1,.91-.63,2.96,2.96,0,0,1,1.19-.23,2.908,2.908,0,0,1,1.17.23,2.944,2.944,0,0,1,.92.62,2.914,2.914,0,0,1,.62.93A3.477,3.477,0,0,1,276.24-6.16Zm1.64,2.88H276.2a2.417,2.417,0,0,1-.91,1.52,2.942,2.942,0,0,1-1.77.5,3.521,3.521,0,0,1-1.46-.28,2.862,2.862,0,0,1-1.02-.75,2.921,2.921,0,0,1-.58-1.08,4.1,4.1,0,0,1-.16-1.29h7.74a8.234,8.234,0,0,0-.17-1.98,5.731,5.731,0,0,0-.76-1.92,4.529,4.529,0,0,0-1.46-1.45,4.242,4.242,0,0,0-2.29-.57,4.7,4.7,0,0,0-1.95.4,4.583,4.583,0,0,0-1.54,1.12,5.163,5.163,0,0,0-1.01,1.7,6.222,6.222,0,0,0-.36,2.16,8.289,8.289,0,0,0,.35,2.18,4.758,4.758,0,0,0,.93,1.72,4.239,4.239,0,0,0,1.53,1.12,5.311,5.311,0,0,0,2.15.4,4.694,4.694,0,0,0,2.92-.88A4.132,4.132,0,0,0,277.88-3.28Zm2.96.02h-1.7a3.742,3.742,0,0,0,.4,1.63,3.009,3.009,0,0,0,.96,1.08,4.023,4.023,0,0,0,1.38.59,7.274,7.274,0,0,0,1.64.18,8.4,8.4,0,0,0,1.57-.15,4.264,4.264,0,0,0,1.42-.53,3.048,3.048,0,0,0,1.02-1,2.88,2.88,0,0,0,.39-1.56,2.438,2.438,0,0,0-.29-1.24,2.589,2.589,0,0,0-.76-.83,4.076,4.076,0,0,0-1.08-.53,12.764,12.764,0,0,0-1.25-.34q-.6-.14-1.2-.27a6.923,6.923,0,0,1-1.08-.32,2.475,2.475,0,0,1-.79-.48.957.957,0,0,1-.31-.73,1.009,1.009,0,0,1,.2-.65,1.43,1.43,0,0,1,.52-.4,2.593,2.593,0,0,1,.71-.21,5.058,5.058,0,0,1,.77-.06,3.86,3.86,0,0,1,.83.09,2.545,2.545,0,0,1,.75.29,1.7,1.7,0,0,1,.56.53,1.72,1.72,0,0,1,.26.83h1.7a3.8,3.8,0,0,0-.4-1.57,2.691,2.691,0,0,0-.91-1,3.748,3.748,0,0,0-1.31-.52,8.164,8.164,0,0,0-1.62-.15,5.71,5.71,0,0,0-1.37.17,4.132,4.132,0,0,0-1.24.52,2.862,2.862,0,0,0-.9.91,2.477,2.477,0,0,0-.35,1.34,2.261,2.261,0,0,0,.5,1.56,3.375,3.375,0,0,0,1.25.87,8.457,8.457,0,0,0,1.63.48q.88.17,1.63.38a4.255,4.255,0,0,1,1.25.55,1.132,1.132,0,0,1,.5,1,1.253,1.253,0,0,1-.24.79,1.521,1.521,0,0,1-.61.47,3.08,3.08,0,0,1-.81.22,6.224,6.224,0,0,1-.84.06,5.039,5.039,0,0,1-1.01-.1,2.834,2.834,0,0,1-.88-.33,1.809,1.809,0,0,1-.63-.62A1.914,1.914,0,0,1,280.84-3.26Zm16.88-7.08v-3.1h-1.7v3.1h-1.76v1.5h1.76v6.58a3.929,3.929,0,0,0,.14,1.16,1.41,1.41,0,0,0,.43.68,1.66,1.66,0,0,0,.76.33,6.1,6.1,0,0,0,1.13.09h1.3V-1.5H299a5.67,5.67,0,0,1-.65-.03.84.84,0,0,1-.39-.13.494.494,0,0,1-.19-.28,1.855,1.855,0,0,1-.05-.48V-8.84h2.06v-1.5Zm3.94-3.94V0h1.7V-5.84a4.188,4.188,0,0,1,.19-1.29,2.93,2.93,0,0,1,.57-1.03,2.531,2.531,0,0,1,.95-.68,3.465,3.465,0,0,1,1.35-.24,2.081,2.081,0,0,1,1.54.56A2.054,2.054,0,0,1,308.52-7V0h1.7V-6.8a6.4,6.4,0,0,0-.17-1.53,2.9,2.9,0,0,0-.59-1.19,2.8,2.8,0,0,0-1.1-.78,4.487,4.487,0,0,0-1.7-.28,4.748,4.748,0,0,0-.95.1,4.2,4.2,0,0,0-.94.31,3.183,3.183,0,0,0-.81.54,2.262,2.262,0,0,0-.56.81h-.04v-5.46Zm12.36,9.12a5.144,5.144,0,0,1,.25-1.67,3.6,3.6,0,0,1,.69-1.23,2.938,2.938,0,0,1,1.03-.76,3.066,3.066,0,0,1,1.25-.26,3.066,3.066,0,0,1,1.25.26,2.938,2.938,0,0,1,1.03.76,3.6,3.6,0,0,1,.69,1.23,5.144,5.144,0,0,1,.25,1.67,5.144,5.144,0,0,1-.25,1.67,3.494,3.494,0,0,1-.69,1.22,2.994,2.994,0,0,1-1.03.75,3.066,3.066,0,0,1-1.25.26,3.066,3.066,0,0,1-1.25-.26,2.994,2.994,0,0,1-1.03-.75,3.494,3.494,0,0,1-.69-1.22A5.144,5.144,0,0,1,314.02-5.16Zm-1.8,0a6.792,6.792,0,0,0,.32,2.12,4.839,4.839,0,0,0,.96,1.71,4.416,4.416,0,0,0,1.58,1.14,5.358,5.358,0,0,0,2.16.41,5.34,5.34,0,0,0,2.17-.41,4.437,4.437,0,0,0,1.57-1.14,4.839,4.839,0,0,0,.96-1.71,6.792,6.792,0,0,0,.32-2.12,6.886,6.886,0,0,0-.32-2.13,4.826,4.826,0,0,0-.96-1.72,4.545,4.545,0,0,0-1.57-1.15,5.229,5.229,0,0,0-2.17-.42,5.247,5.247,0,0,0-2.16.42,4.522,4.522,0,0,0-1.58,1.15,4.826,4.826,0,0,0-.96,1.72A6.886,6.886,0,0,0,312.22-5.16ZM332.82,0V-10.34h-1.7V-4.5a4.188,4.188,0,0,1-.19,1.29,2.93,2.93,0,0,1-.57,1.03,2.531,2.531,0,0,1-.95.68,3.465,3.465,0,0,1-1.35.24,2.081,2.081,0,0,1-1.54-.56,2.054,2.054,0,0,1-.56-1.52v-7h-1.7v6.8a6.4,6.4,0,0,0,.17,1.53,2.9,2.9,0,0,0,.59,1.19,2.711,2.711,0,0,0,1.1.77,4.637,4.637,0,0,0,1.7.27,4.134,4.134,0,0,0,1.98-.45,3.474,3.474,0,0,0,1.38-1.41h.04V0ZM344.3-.88v-9.46h-1.6v1.48h-.02a3.026,3.026,0,0,0-1.28-1.29,3.816,3.816,0,0,0-1.8-.43,4.6,4.6,0,0,0-2.26.51,4.385,4.385,0,0,0-1.48,1.3,5.154,5.154,0,0,0-.8,1.76,7.855,7.855,0,0,0-.24,1.89,6.848,6.848,0,0,0,.29,2.01,4.812,4.812,0,0,0,.87,1.66,4.227,4.227,0,0,0,1.44,1.13,4.554,4.554,0,0,0,2.02.42,4.132,4.132,0,0,0,1.89-.45,2.858,2.858,0,0,0,1.33-1.41h.04v.68A6.875,6.875,0,0,1,342.53.5a3.3,3.3,0,0,1-.55,1.23,2.666,2.666,0,0,1-.96.8,3.152,3.152,0,0,1-1.42.29,4.585,4.585,0,0,1-.88-.09,3.2,3.2,0,0,1-.85-.29,2.116,2.116,0,0,1-.66-.52,1.258,1.258,0,0,1-.29-.78h-1.7a2.673,2.673,0,0,0,.44,1.42,3.168,3.168,0,0,0,1.01.94,4.5,4.5,0,0,0,1.36.52,7.034,7.034,0,0,0,1.47.16,4.726,4.726,0,0,0,3.64-1.26A5.445,5.445,0,0,0,344.3-.88Zm-4.76-.5a2.6,2.6,0,0,1-1.4-.35,2.7,2.7,0,0,1-.9-.92,3.982,3.982,0,0,1-.48-1.27,7.121,7.121,0,0,1-.14-1.4,5.833,5.833,0,0,1,.17-1.42,3.519,3.519,0,0,1,.54-1.2,2.722,2.722,0,0,1,.95-.83,2.934,2.934,0,0,1,1.4-.31,2.7,2.7,0,0,1,1.36.32,2.649,2.649,0,0,1,.91.85,3.738,3.738,0,0,1,.51,1.19,5.668,5.668,0,0,1,.16,1.34,6.249,6.249,0,0,1-.17,1.44,4.206,4.206,0,0,1-.53,1.29,2.789,2.789,0,0,1-.95.92A2.756,2.756,0,0,1,339.54-1.38Zm7.32-12.9V0h1.7V-5.84a4.188,4.188,0,0,1,.19-1.29,2.93,2.93,0,0,1,.57-1.03,2.531,2.531,0,0,1,.95-.68,3.465,3.465,0,0,1,1.35-.24,2.081,2.081,0,0,1,1.54.56A2.054,2.054,0,0,1,353.72-7V0h1.7V-6.8a6.4,6.4,0,0,0-.17-1.53,2.9,2.9,0,0,0-.59-1.19,2.8,2.8,0,0,0-1.1-.78,4.487,4.487,0,0,0-1.7-.28,4.748,4.748,0,0,0-.95.1,4.2,4.2,0,0,0-.94.31,3.183,3.183,0,0,0-.81.54,2.262,2.262,0,0,0-.56.81h-.04v-5.46ZM368.2,0l3.78-10.34H370.2l-2.82,8.62h-.04l-2.9-8.62h-1.9L366.38,0Zm7.14-12.2v-2.08h-1.7v2.08Zm-1.7,1.86V0h1.7V-10.34Zm5.58,5.26a6.8,6.8,0,0,1,.16-1.48,3.915,3.915,0,0,1,.52-1.28,2.707,2.707,0,0,1,.96-.9,2.919,2.919,0,0,1,1.46-.34,3.155,3.155,0,0,1,1.5.33,2.912,2.912,0,0,1,1.01.87,3.639,3.639,0,0,1,.57,1.25,5.959,5.959,0,0,1,.18,1.47,6,6,0,0,1-.17,1.42,3.721,3.721,0,0,1-.55,1.25,2.926,2.926,0,0,1-.98.89,2.919,2.919,0,0,1-1.46.34,3.036,3.036,0,0,1-1.43-.32,2.842,2.842,0,0,1-1-.86,3.805,3.805,0,0,1-.58-1.23A5.287,5.287,0,0,1,379.22-5.08Zm8,5.08V-14.28h-1.7v5.32h-.04a2.738,2.738,0,0,0-.69-.77,3.92,3.92,0,0,0-.87-.5,4.367,4.367,0,0,0-.92-.27,5.035,5.035,0,0,0-.86-.08,4.706,4.706,0,0,0-2.07.43,4.25,4.25,0,0,0-1.48,1.16,4.9,4.9,0,0,0-.88,1.71,7.3,7.3,0,0,0-.29,2.08,7.069,7.069,0,0,0,.3,2.08,5.142,5.142,0,0,0,.89,1.72,4.3,4.3,0,0,0,1.48,1.18,4.664,4.664,0,0,0,2.09.44,5.04,5.04,0,0,0,1.98-.38,2.5,2.5,0,0,0,1.32-1.24h.04V0Zm9.8-6.16h-5.94a3.541,3.541,0,0,1,.26-1.13,3.014,3.014,0,0,1,.6-.93,2.748,2.748,0,0,1,.91-.63,2.96,2.96,0,0,1,1.19-.23,2.908,2.908,0,0,1,1.17.23,2.944,2.944,0,0,1,.92.62,2.914,2.914,0,0,1,.62.93A3.477,3.477,0,0,1,397.02-6.16Zm1.64,2.88h-1.68a2.417,2.417,0,0,1-.91,1.52,2.942,2.942,0,0,1-1.77.5,3.521,3.521,0,0,1-1.46-.28,2.862,2.862,0,0,1-1.02-.75,2.921,2.921,0,0,1-.58-1.08,4.1,4.1,0,0,1-.16-1.29h7.74a8.234,8.234,0,0,0-.17-1.98,5.731,5.731,0,0,0-.76-1.92,4.529,4.529,0,0,0-1.46-1.45,4.242,4.242,0,0,0-2.29-.57,4.7,4.7,0,0,0-1.95.4,4.583,4.583,0,0,0-1.54,1.12,5.163,5.163,0,0,0-1.01,1.7,6.222,6.222,0,0,0-.36,2.16,8.289,8.289,0,0,0,.35,2.18,4.758,4.758,0,0,0,.93,1.72,4.239,4.239,0,0,0,1.53,1.12,5.311,5.311,0,0,0,2.15.4,4.694,4.694,0,0,0,2.92-.88A4.132,4.132,0,0,0,398.66-3.28Zm3.16-1.88a5.144,5.144,0,0,1,.25-1.67,3.6,3.6,0,0,1,.69-1.23,2.938,2.938,0,0,1,1.03-.76,3.066,3.066,0,0,1,1.25-.26,3.066,3.066,0,0,1,1.25.26,2.938,2.938,0,0,1,1.03.76,3.6,3.6,0,0,1,.69,1.23,5.144,5.144,0,0,1,.25,1.67,5.144,5.144,0,0,1-.25,1.67,3.494,3.494,0,0,1-.69,1.22,2.994,2.994,0,0,1-1.03.75,3.066,3.066,0,0,1-1.25.26,3.066,3.066,0,0,1-1.25-.26,2.994,2.994,0,0,1-1.03-.75,3.494,3.494,0,0,1-.69-1.22A5.144,5.144,0,0,1,401.82-5.16Zm-1.8,0a6.792,6.792,0,0,0,.32,2.12,4.839,4.839,0,0,0,.96,1.71,4.416,4.416,0,0,0,1.58,1.14,5.358,5.358,0,0,0,2.16.41,5.34,5.34,0,0,0,2.17-.41,4.437,4.437,0,0,0,1.57-1.14,4.839,4.839,0,0,0,.96-1.71,6.792,6.792,0,0,0,.32-2.12,6.886,6.886,0,0,0-.32-2.13,4.826,4.826,0,0,0-.96-1.72,4.545,4.545,0,0,0-1.57-1.15,5.229,5.229,0,0,0-2.17-.42,5.247,5.247,0,0,0-2.16.42,4.522,4.522,0,0,0-1.58,1.15,4.826,4.826,0,0,0-.96,1.72A6.886,6.886,0,0,0,400.02-5.16Zm19.96-5.18v-3.1h-1.7v3.1h-1.76v1.5h1.76v6.58a3.929,3.929,0,0,0,.14,1.16,1.41,1.41,0,0,0,.43.68,1.66,1.66,0,0,0,.76.33,6.1,6.1,0,0,0,1.13.09h1.3V-1.5h-.78a5.67,5.67,0,0,1-.65-.03.84.84,0,0,1-.39-.13.494.494,0,0,1-.19-.28,1.855,1.855,0,0,1-.05-.48V-8.84h2.06v-1.5Zm3.88,0V0h1.7V-4.6a7.069,7.069,0,0,1,.2-1.77,3.393,3.393,0,0,1,.64-1.31,2.743,2.743,0,0,1,1.16-.82,4.808,4.808,0,0,1,1.74-.28v-1.8a3.821,3.821,0,0,0-2.28.56,4.606,4.606,0,0,0-1.52,1.86h-.04v-2.18ZM439.74-.04a2.4,2.4,0,0,1-1.22.26,1.463,1.463,0,0,1-1.05-.37,1.608,1.608,0,0,1-.39-1.21,4.067,4.067,0,0,1-1.63,1.21,5.388,5.388,0,0,1-2.01.37,5.385,5.385,0,0,1-1.33-.16,3.092,3.092,0,0,1-1.09-.5,2.4,2.4,0,0,1-.73-.89,3,3,0,0,1-.27-1.33,3.037,3.037,0,0,1,.3-1.44,2.618,2.618,0,0,1,.79-.91,3.62,3.62,0,0,1,1.12-.53q.63-.18,1.29-.3.7-.14,1.33-.21a7.41,7.41,0,0,0,1.11-.2,1.85,1.85,0,0,0,.76-.38.928.928,0,0,0,.28-.73,1.7,1.7,0,0,0-.21-.9,1.44,1.44,0,0,0-.54-.52,2.2,2.2,0,0,0-.74-.24,5.589,5.589,0,0,0-.81-.06,3.6,3.6,0,0,0-1.8.41,1.74,1.74,0,0,0-.78,1.55h-1.7a3.672,3.672,0,0,1,.4-1.62,3.033,3.033,0,0,1,.96-1.07,4.028,4.028,0,0,1,1.37-.59,7.235,7.235,0,0,1,1.65-.18,9.679,9.679,0,0,1,1.39.1,3.633,3.633,0,0,1,1.25.41,2.4,2.4,0,0,1,.9.87,2.784,2.784,0,0,1,.34,1.46v5.32a3.979,3.979,0,0,0,.07.88q.07.28.47.28a1.683,1.683,0,0,0,.52-.1Zm-2.76-5.3a2.116,2.116,0,0,1-.84.35q-.52.11-1.09.18t-1.15.16a4.228,4.228,0,0,0-1.04.29,1.892,1.892,0,0,0-.75.57,1.6,1.6,0,0,0-.29,1.01,1.382,1.382,0,0,0,.17.71,1.417,1.417,0,0,0,.44.47,1.846,1.846,0,0,0,.63.26,3.5,3.5,0,0,0,.76.08,4.027,4.027,0,0,0,1.44-.23,3.029,3.029,0,0,0,.98-.58,2.288,2.288,0,0,0,.56-.76,1.922,1.922,0,0,0,.18-.77Zm6.14-6.86v-2.08h-1.7v2.08Zm-1.7,1.86V0h1.7V-10.34Zm4.34,0V0h1.7V-5.84a4.188,4.188,0,0,1,.19-1.29,2.93,2.93,0,0,1,.57-1.03,2.531,2.531,0,0,1,.95-.68,3.465,3.465,0,0,1,1.35-.24,2.081,2.081,0,0,1,1.54.56A2.054,2.054,0,0,1,452.62-7V0h1.7V-6.8a6.4,6.4,0,0,0-.17-1.53,2.9,2.9,0,0,0-.59-1.19,2.8,2.8,0,0,0-1.1-.78,4.487,4.487,0,0,0-1.7-.28A3.579,3.579,0,0,0,447.4-8.7h-.04v-1.64Zm12.92-1.86v-2.08h-1.7v2.08Zm-1.7,1.86V0h1.7V-10.34Zm4.34,0V0h1.7V-5.84a4.188,4.188,0,0,1,.19-1.29,2.93,2.93,0,0,1,.57-1.03,2.531,2.531,0,0,1,.95-.68,3.465,3.465,0,0,1,1.35-.24,2.081,2.081,0,0,1,1.54.56A2.054,2.054,0,0,1,468.18-7V0h1.7V-6.8a6.4,6.4,0,0,0-.17-1.53,2.9,2.9,0,0,0-.59-1.19,2.8,2.8,0,0,0-1.1-.78,4.487,4.487,0,0,0-1.7-.28,3.579,3.579,0,0,0-3.36,1.88h-.04v-1.64ZM481.36-.88v-9.46h-1.6v1.48h-.02a3.026,3.026,0,0,0-1.28-1.29,3.816,3.816,0,0,0-1.8-.43,4.6,4.6,0,0,0-2.26.51,4.385,4.385,0,0,0-1.48,1.3,5.154,5.154,0,0,0-.8,1.76,7.855,7.855,0,0,0-.24,1.89,6.848,6.848,0,0,0,.29,2.01,4.812,4.812,0,0,0,.87,1.66,4.227,4.227,0,0,0,1.44,1.13A4.554,4.554,0,0,0,476.5.1a4.132,4.132,0,0,0,1.89-.45,2.858,2.858,0,0,0,1.33-1.41h.04v.68A6.875,6.875,0,0,1,479.59.5a3.3,3.3,0,0,1-.55,1.23,2.666,2.666,0,0,1-.96.8,3.152,3.152,0,0,1-1.42.29,4.585,4.585,0,0,1-.88-.09,3.2,3.2,0,0,1-.85-.29,2.116,2.116,0,0,1-.66-.52,1.258,1.258,0,0,1-.29-.78h-1.7a2.673,2.673,0,0,0,.44,1.42,3.168,3.168,0,0,0,1.01.94,4.5,4.5,0,0,0,1.36.52,7.034,7.034,0,0,0,1.47.16,4.726,4.726,0,0,0,3.64-1.26A5.445,5.445,0,0,0,481.36-.88Zm-4.76-.5a2.6,2.6,0,0,1-1.4-.35,2.7,2.7,0,0,1-.9-.92,3.982,3.982,0,0,1-.48-1.27,7.121,7.121,0,0,1-.14-1.4,5.833,5.833,0,0,1,.17-1.42,3.519,3.519,0,0,1,.54-1.2,2.722,2.722,0,0,1,.95-.83,2.934,2.934,0,0,1,1.4-.31,2.7,2.7,0,0,1,1.36.32,2.649,2.649,0,0,1,.91.85,3.738,3.738,0,0,1,.51,1.19,5.668,5.668,0,0,1,.16,1.34,6.249,6.249,0,0,1-.17,1.44,4.206,4.206,0,0,1-.53,1.29,2.789,2.789,0,0,1-.95.92A2.756,2.756,0,0,1,476.6-1.38Z" transform="translate(10058 -2253)" fill="#050833"/>
    <path id="Path_11090" data-name="Path 11090" d="M1.956,0l8.312-15.56,1.9.44L4.2,0ZM1-14.96V-16.8H12.172v1.68l-1.564.16ZM20.58.288A5.53,5.53,0,0,1,17.164-.828,7.42,7.42,0,0,1,14.836-3.9a11.267,11.267,0,0,1-.844-4.5,11.27,11.27,0,0,1,.844-4.5,7.433,7.433,0,0,1,2.324-3.072,5.514,5.514,0,0,1,3.412-1.116,5.542,5.542,0,0,1,3.423,1.116A7.435,7.435,0,0,1,26.326-12.9a11.241,11.241,0,0,1,.846,4.5,11.252,11.252,0,0,1-.845,4.5A7.435,7.435,0,0,1,24-.828,5.531,5.531,0,0,1,20.58.288Zm0-1.832a3.582,3.582,0,0,0,2.382-.88,5.768,5.768,0,0,0,1.624-2.424A10,10,0,0,0,25.172-8.4a10.031,10.031,0,0,0-.583-3.556,5.75,5.75,0,0,0-1.627-2.427,3.6,3.6,0,0,0-2.39-.881,3.573,3.573,0,0,0-2.378.88,5.758,5.758,0,0,0-1.62,2.427A10.058,10.058,0,0,0,15.992-8.4a10.034,10.034,0,0,0,.582,3.554A5.743,5.743,0,0,0,18.2-2.423,3.59,3.59,0,0,0,20.582-1.544ZM35.88,0l-.008-17.12h1.92L37.8,0Zm8.432,0V-6.144l1.92-.72V0Zm0-6.144a6.905,6.905,0,0,0-.416-2.71,2.458,2.458,0,0,0-1.136-1.284,3.734,3.734,0,0,0-1.636-.354,2.905,2.905,0,0,0-2.448,1.118A5.057,5.057,0,0,0,37.8-6.2h-.936A8.793,8.793,0,0,1,37.41-9.48a4.46,4.46,0,0,1,1.6-2.084,4.381,4.381,0,0,1,2.542-.724,4.5,4.5,0,0,1,3.434,1.34,5.7,5.7,0,0,1,1.246,4.084ZM54.65.288a6.016,6.016,0,0,1-3.122-.8,5.688,5.688,0,0,1-2.13-2.22A6.716,6.716,0,0,1,48.626-6a6.8,6.8,0,0,1,.759-3.264,5.6,5.6,0,0,1,2.118-2.22,5.969,5.969,0,0,1,3.1-.8,6,6,0,0,1,3.123.8,5.622,5.622,0,0,1,2.116,2.22A6.791,6.791,0,0,1,60.6-6a6.791,6.791,0,0,1-.761,3.264,5.648,5.648,0,0,1-2.1,2.22A5.9,5.9,0,0,1,54.65.288Zm0-1.813A3.706,3.706,0,0,0,56.705-2.1,3.96,3.96,0,0,0,58.1-3.676,5.082,5.082,0,0,0,58.608-6,5.067,5.067,0,0,0,58.1-8.323,3.922,3.922,0,0,0,56.679-9.9a3.807,3.807,0,0,0-2.075-.573,3.754,3.754,0,0,0-2.065.573,3.932,3.932,0,0,0-1.405,1.578A5.082,5.082,0,0,0,50.625-6a5.024,5.024,0,0,0,.516,2.324A3.954,3.954,0,0,0,52.568-2.1,3.825,3.825,0,0,0,54.648-1.525ZM71.547,0l-.12-2.208V-12h1.92V0ZM62.995-5.136V-12h1.92v6.144Zm1.92-.72a6.911,6.911,0,0,0,.416,2.708,2.444,2.444,0,0,0,1.146,1.286,3.753,3.753,0,0,0,1.626.354A2.916,2.916,0,0,0,70.551-2.63,5.049,5.049,0,0,0,71.427-5.8h.936a8.793,8.793,0,0,1-.546,3.276,4.486,4.486,0,0,1-1.59,2.084,4.368,4.368,0,0,1-2.552.724,4.5,4.5,0,0,1-3.432-1.342,5.692,5.692,0,0,1-1.248-4.082ZM77.759-6.5a6.034,6.034,0,0,1,.74-3.164,4.634,4.634,0,0,1,1.91-1.8,5.466,5.466,0,0,1,2.466-.582v1.8a6.071,6.071,0,0,0-2.04.344,3.4,3.4,0,0,0-1.59,1.142A3.429,3.429,0,0,0,78.627-6.6ZM76.707,0V-12h1.92V0Zm12.3.288a6.229,6.229,0,0,1-2.3-.391,4.8,4.8,0,0,1-1.646-1.043,4.027,4.027,0,0,1-.949-1.42L85.8-3.26a3.158,3.158,0,0,0,1.218,1.3,3.378,3.378,0,0,0,1.8.5A3.725,3.725,0,0,0,90.711-1.9a1.376,1.376,0,0,0,.761-1.248,1.465,1.465,0,0,0-.565-1.2,4.4,4.4,0,0,0-1.643-.738l-1.156-.305A5.754,5.754,0,0,1,85.551-6.7a2.684,2.684,0,0,1-.909-1.98,3.287,3.287,0,0,1,1.122-2.657,5.039,5.039,0,0,1,3.323-.947,5.7,5.7,0,0,1,1.927.31A4.33,4.33,0,0,1,92.5-11.1a3.334,3.334,0,0,1,.9,1.34l-1.663.732a2.116,2.116,0,0,0-1.041-1.163,3.962,3.962,0,0,0-1.764-.354,2.829,2.829,0,0,0-1.717.463,1.525,1.525,0,0,0-.625,1.3,1.193,1.193,0,0,0,.518.9,3.987,3.987,0,0,0,1.534.694l1.179.3a5.734,5.734,0,0,1,1.974.855A4.066,4.066,0,0,1,93-4.754a3.044,3.044,0,0,1,.411,1.533,3.105,3.105,0,0,1-.575,1.873A3.649,3.649,0,0,1,91.273-.133,5.731,5.731,0,0,1,89.008.288Z" transform="translate(10968 -2203)" fill="#050833"/>
    <path id="Path_11089" data-name="Path 11089" d="M3.38-1.184l-2-.5A4.159,4.159,0,0,1,1.7-3.25,6.193,6.193,0,0,1,2.63-4.8,8.747,8.747,0,0,1,4.136-6.248l3.48-2.6A6.092,6.092,0,0,0,8.7-9.858a4.811,4.811,0,0,0,.736-1.178A3,3,0,0,0,9.7-12.228a2.881,2.881,0,0,0-.414-1.518,3.036,3.036,0,0,0-1.154-1.1,3.568,3.568,0,0,0-1.756-.41,3.774,3.774,0,0,0-1.724.376,3.611,3.611,0,0,0-1.226.986,3.793,3.793,0,0,0-.682,1.3l-2.064-.4a5.268,5.268,0,0,1,1.034-2.014,5.62,5.62,0,0,1,1.928-1.512,5.854,5.854,0,0,1,2.614-.574,6.269,6.269,0,0,1,2.912.636,4.765,4.765,0,0,1,1.912,1.732,4.622,4.622,0,0,1,.68,2.488,4.721,4.721,0,0,1-.716,2.5,9.006,9.006,0,0,1-2.1,2.284L5.66-4.968a7.761,7.761,0,0,0-1.214,1.1,4.451,4.451,0,0,0-.794,1.256A3.719,3.719,0,0,0,3.38-1.184ZM1.38,0V-1.68l1.528-.128h9.08V0ZM21.1.288A5.53,5.53,0,0,1,17.68-.828,7.42,7.42,0,0,1,15.352-3.9a11.267,11.267,0,0,1-.844-4.5,11.27,11.27,0,0,1,.844-4.5,7.433,7.433,0,0,1,2.324-3.072,5.514,5.514,0,0,1,3.412-1.116,5.542,5.542,0,0,1,3.423,1.116A7.435,7.435,0,0,1,26.842-12.9a11.241,11.241,0,0,1,.846,4.5,11.252,11.252,0,0,1-.845,4.5A7.435,7.435,0,0,1,24.515-.828,5.531,5.531,0,0,1,21.1.288Zm0-1.832a3.582,3.582,0,0,0,2.382-.88A5.768,5.768,0,0,0,25.1-4.848,10,10,0,0,0,25.688-8.4a10.031,10.031,0,0,0-.583-3.556,5.75,5.75,0,0,0-1.627-2.427,3.6,3.6,0,0,0-2.39-.881,3.573,3.573,0,0,0-2.378.88,5.758,5.758,0,0,0-1.62,2.427A10.058,10.058,0,0,0,16.508-8.4a10.034,10.034,0,0,0,.582,3.554,5.743,5.743,0,0,0,1.624,2.424A3.59,3.59,0,0,0,21.1-1.544ZM36.388,0V-12h1.8l.12,2.208V0ZM44.82,0V-6.144l1.92-.72V0Zm8.432,0V-6.144l1.92-.72V0ZM44.82-6.144a6.908,6.908,0,0,0-.416-2.71,2.457,2.457,0,0,0-1.136-1.284,3.734,3.734,0,0,0-1.636-.354,2.905,2.905,0,0,0-2.448,1.118,5.057,5.057,0,0,0-.876,3.17h-.936a8.793,8.793,0,0,1,.546-3.276,4.46,4.46,0,0,1,1.6-2.084,4.38,4.38,0,0,1,2.542-.724,4.5,4.5,0,0,1,3.434,1.34A5.7,5.7,0,0,1,46.74-6.864Zm8.432,0a6.905,6.905,0,0,0-.416-2.71A2.458,2.458,0,0,0,51.7-10.138a3.734,3.734,0,0,0-1.636-.354,2.905,2.905,0,0,0-2.448,1.118A5.057,5.057,0,0,0,46.74-6.2H45.8A8.793,8.793,0,0,1,46.35-9.48a4.46,4.46,0,0,1,1.6-2.084,4.381,4.381,0,0,1,2.542-.724,4.5,4.5,0,0,1,3.434,1.34,5.7,5.7,0,0,1,1.246,4.084ZM58.332,0l.048-12H60.3L60.252,0Zm.984-14.784a1.151,1.151,0,0,1-.84-.36,1.151,1.151,0,0,1-.36-.84,1.139,1.139,0,0,1,.36-.852,1.171,1.171,0,0,1,.84-.348,1.159,1.159,0,0,1,.852.348,1.159,1.159,0,0,1,.348.852,1.171,1.171,0,0,1-.348.84A1.139,1.139,0,0,1,59.316-14.784ZM63.772,0V-12h1.8l.12,2.208V0ZM72.2,0V-6.144l1.92-.72V0Zm0-6.144a6.908,6.908,0,0,0-.416-2.71,2.457,2.457,0,0,0-1.136-1.284,3.734,3.734,0,0,0-1.636-.354,2.905,2.905,0,0,0-2.448,1.118,5.057,5.057,0,0,0-.876,3.17h-.936A8.793,8.793,0,0,1,65.3-9.48a4.46,4.46,0,0,1,1.6-2.084,4.38,4.38,0,0,1,2.542-.724,4.5,4.5,0,0,1,3.434,1.34,5.7,5.7,0,0,1,1.246,4.084ZM85.4,0l-.12-2.208V-12H87.2V0ZM76.844-5.136V-12h1.92v6.144Zm1.92-.72a6.911,6.911,0,0,0,.416,2.708,2.444,2.444,0,0,0,1.146,1.286,3.753,3.753,0,0,0,1.626.354A2.916,2.916,0,0,0,84.4-2.63,5.049,5.049,0,0,0,85.276-5.8h.936a8.793,8.793,0,0,1-.546,3.276,4.486,4.486,0,0,1-1.59,2.084,4.368,4.368,0,0,1-2.552.724,4.5,4.5,0,0,1-3.432-1.342,5.692,5.692,0,0,1-1.248-4.082ZM95.308.288A3.8,3.8,0,0,1,92.6-.618a3.369,3.369,0,0,1-.96-2.574V-15.744h1.92V-3.388a1.921,1.921,0,0,0,.492,1.41,1.864,1.864,0,0,0,1.388.5,1.778,1.778,0,0,0,.55-.09,3.222,3.222,0,0,0,.746-.41l.744,1.56a4.787,4.787,0,0,1-1.14.554A3.527,3.527,0,0,1,95.308.288ZM89.556-10.3V-12h7.592v1.7ZM105.1.288a5.882,5.882,0,0,1-3.083-.8,5.665,5.665,0,0,1-2.1-2.22A6.777,6.777,0,0,1,99.15-6a6.792,6.792,0,0,1,.76-3.264,5.666,5.666,0,0,1,2.1-2.22,5.8,5.8,0,0,1,3.055-.8,5.049,5.049,0,0,1,2.892.828,5.424,5.424,0,0,1,1.905,2.32,8.385,8.385,0,0,1,.677,3.495H108.6a7.433,7.433,0,0,0-.4-2.627,3.612,3.612,0,0,0-1.206-1.689,3.2,3.2,0,0,0-1.967-.593,3.7,3.7,0,0,0-2.046.566A3.747,3.747,0,0,0,101.615-8.4a5.613,5.613,0,0,0-.485,2.427,5.007,5.007,0,0,0,.529,2.363,3.95,3.95,0,0,0,1.451,1.569,3.918,3.918,0,0,0,2.084.563,3.616,3.616,0,0,0,2.131-.607,4.2,4.2,0,0,0,1.351-1.567l1.693.857a5.884,5.884,0,0,1-1.225,1.619A5.311,5.311,0,0,1,107.377-.1,6.408,6.408,0,0,1,105.1.288Zm-4.667-5.933.006-1.64h8.916v1.64ZM117.2.288A6.229,6.229,0,0,1,114.9-.1a4.8,4.8,0,0,1-1.646-1.043,4.027,4.027,0,0,1-.949-1.42L114-3.26a3.158,3.158,0,0,0,1.218,1.3,3.378,3.378,0,0,0,1.8.5A3.725,3.725,0,0,0,118.9-1.9a1.376,1.376,0,0,0,.761-1.248,1.465,1.465,0,0,0-.565-1.2,4.4,4.4,0,0,0-1.643-.738L116.3-5.391A5.754,5.754,0,0,1,113.744-6.7a2.684,2.684,0,0,1-.909-1.98,3.287,3.287,0,0,1,1.122-2.657,5.039,5.039,0,0,1,3.323-.947,5.7,5.7,0,0,1,1.927.31,4.33,4.33,0,0,1,1.486.875,3.334,3.334,0,0,1,.9,1.34l-1.663.732a2.116,2.116,0,0,0-1.041-1.163,3.962,3.962,0,0,0-1.764-.354,2.829,2.829,0,0,0-1.717.463,1.525,1.525,0,0,0-.625,1.3,1.193,1.193,0,0,0,.518.9,3.987,3.987,0,0,0,1.534.694l1.179.3a5.734,5.734,0,0,1,1.974.855,4.066,4.066,0,0,1,1.209,1.286,3.044,3.044,0,0,1,.411,1.533,3.105,3.105,0,0,1-.575,1.873,3.649,3.649,0,0,1-1.563,1.215A5.731,5.731,0,0,1,117.2.288Z" transform="translate(10089 -2071)" fill="#050833"/>
    <path id="Path_11088" data-name="Path 11088" d="M9.82-10.1h1.8a5.034,5.034,0,0,0-.45-2.03,3.955,3.955,0,0,0-1.12-1.41,4.62,4.62,0,0,0-1.65-.82,7.63,7.63,0,0,0-2.04-.26,7.325,7.325,0,0,0-1.91.25,5.252,5.252,0,0,0-1.66.76,3.847,3.847,0,0,0-1.17,1.3,3.784,3.784,0,0,0-.44,1.87,3.122,3.122,0,0,0,.39,1.63A3.162,3.162,0,0,0,2.61-7.75a6.044,6.044,0,0,0,1.47.66q.82.25,1.67.44t1.67.37a7.614,7.614,0,0,1,1.47.47,2.866,2.866,0,0,1,1.04.75,1.792,1.792,0,0,1,.39,1.2A2.336,2.336,0,0,1,10-2.58a2.329,2.329,0,0,1-.84.79,3.8,3.8,0,0,1-1.17.41,7.093,7.093,0,0,1-1.29.12,6.1,6.1,0,0,1-1.56-.2,3.882,3.882,0,0,1-1.33-.62,3.182,3.182,0,0,1-.92-1.07A3.225,3.225,0,0,1,2.54-4.7H.74a5.022,5.022,0,0,0,.47,2.25A4.314,4.314,0,0,0,2.49-.89,5.606,5.606,0,0,0,4.37.02a8.373,8.373,0,0,0,2.27.3A8.681,8.681,0,0,0,8.61.09,5.7,5.7,0,0,0,10.4-.65a4.2,4.2,0,0,0,1.31-1.32,3.586,3.586,0,0,0,.51-1.95,3.581,3.581,0,0,0-.39-1.76,3.474,3.474,0,0,0-1.04-1.16,5.508,5.508,0,0,0-1.47-.73q-.82-.27-1.67-.47T5.98-8.41a8.745,8.745,0,0,1-1.47-.43,2.892,2.892,0,0,1-1.04-.67,1.489,1.489,0,0,1-.39-1.07,2.319,2.319,0,0,1,.27-1.17,2.1,2.1,0,0,1,.72-.75,3.133,3.133,0,0,1,1.03-.4,5.809,5.809,0,0,1,1.18-.12,4.032,4.032,0,0,1,2.43.69A2.975,2.975,0,0,1,9.82-10.1Zm11.6,3.94H15.48a3.541,3.541,0,0,1,.26-1.13,3.014,3.014,0,0,1,.6-.93,2.748,2.748,0,0,1,.91-.63,2.96,2.96,0,0,1,1.19-.23,2.908,2.908,0,0,1,1.17.23,2.944,2.944,0,0,1,.92.62,2.914,2.914,0,0,1,.62.93A3.478,3.478,0,0,1,21.42-6.16Zm1.64,2.88H21.38a2.417,2.417,0,0,1-.91,1.52,2.942,2.942,0,0,1-1.77.5,3.521,3.521,0,0,1-1.46-.28,2.862,2.862,0,0,1-1.02-.75,2.922,2.922,0,0,1-.58-1.08,4.1,4.1,0,0,1-.16-1.29h7.74a8.232,8.232,0,0,0-.17-1.98,5.732,5.732,0,0,0-.76-1.92,4.529,4.529,0,0,0-1.46-1.45,4.242,4.242,0,0,0-2.29-.57,4.7,4.7,0,0,0-1.95.4,4.583,4.583,0,0,0-1.54,1.12,5.162,5.162,0,0,0-1.01,1.7,6.222,6.222,0,0,0-.36,2.16,8.288,8.288,0,0,0,.35,2.18,4.758,4.758,0,0,0,.93,1.72A4.238,4.238,0,0,0,16.49-.18a5.311,5.311,0,0,0,2.15.4,4.694,4.694,0,0,0,2.92-.88A4.132,4.132,0,0,0,23.06-3.28Zm4.28-7.06v-3.1h-1.7v3.1H23.88v1.5h1.76v6.58a3.929,3.929,0,0,0,.14,1.16,1.41,1.41,0,0,0,.43.68,1.66,1.66,0,0,0,.76.33A6.1,6.1,0,0,0,28.1,0h1.3V-1.5h-.78a5.67,5.67,0,0,1-.65-.03.84.84,0,0,1-.39-.13.494.494,0,0,1-.19-.28,1.855,1.855,0,0,1-.05-.48V-8.84H29.4v-1.5ZM39.84,0V-10.34h-1.7V-4.5a4.189,4.189,0,0,1-.19,1.29,2.93,2.93,0,0,1-.57,1.03,2.531,2.531,0,0,1-.95.68,3.465,3.465,0,0,1-1.35.24,2.081,2.081,0,0,1-1.54-.56,2.054,2.054,0,0,1-.56-1.52v-7h-1.7v6.8a6.4,6.4,0,0,0,.17,1.53,2.9,2.9,0,0,0,.59,1.19,2.711,2.711,0,0,0,1.1.77,4.637,4.637,0,0,0,1.7.27,4.134,4.134,0,0,0,1.98-.45A3.474,3.474,0,0,0,38.2-1.64h.04V0Zm2.62-10.34V3.94h1.7V-1.38h.04a2.739,2.739,0,0,0,.69.77,3.634,3.634,0,0,0,.87.49,4.722,4.722,0,0,0,.93.26,5.11,5.11,0,0,0,.85.08A4.8,4.8,0,0,0,49.61-.2a4.149,4.149,0,0,0,1.48-1.15,4.9,4.9,0,0,0,.88-1.71,7.3,7.3,0,0,0,.29-2.08,7.068,7.068,0,0,0-.3-2.08,5.256,5.256,0,0,0-.89-1.73,4.251,4.251,0,0,0-1.48-1.19,4.664,4.664,0,0,0-2.09-.44,4.927,4.927,0,0,0-1.98.39A2.545,2.545,0,0,0,44.2-8.94h-.04v-1.4Zm8,5.08a6.8,6.8,0,0,1-.16,1.48,3.915,3.915,0,0,1-.52,1.28,2.733,2.733,0,0,1-.95.9,2.907,2.907,0,0,1-1.47.34,3.155,3.155,0,0,1-1.5-.33,2.911,2.911,0,0,1-1.01-.87,3.638,3.638,0,0,1-.57-1.25,5.959,5.959,0,0,1-.18-1.47,6,6,0,0,1,.17-1.42,3.721,3.721,0,0,1,.55-1.25,2.926,2.926,0,0,1,.98-.89,2.919,2.919,0,0,1,1.46-.34,3.036,3.036,0,0,1,1.43.32,2.842,2.842,0,0,1,1,.86,3.805,3.805,0,0,1,.58,1.23A5.287,5.287,0,0,1,50.46-5.26ZM70.06,0l3.3-10.34H71.6L69.28-1.88h-.04l-2.16-8.46H65.22L63.14-1.88H63.1l-2.34-8.46H58.88L62.2,0h1.84l2.08-8.22h.04L68.26,0Zm6.72-12.2v-2.08h-1.7v2.08Zm-1.7,1.86V0h1.7V-10.34Zm6.7,0v-3.1h-1.7v3.1H78.32v1.5h1.76v6.58a3.929,3.929,0,0,0,.14,1.16,1.41,1.41,0,0,0,.43.68,1.66,1.66,0,0,0,.76.33A6.1,6.1,0,0,0,82.54,0h1.3V-1.5h-.78a5.67,5.67,0,0,1-.65-.03.84.84,0,0,1-.39-.13.494.494,0,0,1-.19-.28,1.855,1.855,0,0,1-.05-.48V-8.84h2.06v-1.5Zm3.94-3.94V0h1.7V-5.84a4.189,4.189,0,0,1,.19-1.29,2.93,2.93,0,0,1,.57-1.03,2.531,2.531,0,0,1,.95-.68,3.465,3.465,0,0,1,1.35-.24,2.081,2.081,0,0,1,1.54.56A2.054,2.054,0,0,1,92.58-7V0h1.7V-6.8a6.4,6.4,0,0,0-.17-1.53,2.9,2.9,0,0,0-.59-1.19,2.8,2.8,0,0,0-1.1-.78,4.487,4.487,0,0,0-1.7-.28,4.747,4.747,0,0,0-.95.1,4.2,4.2,0,0,0-.94.31,3.183,3.183,0,0,0-.81.54,2.262,2.262,0,0,0-.56.81h-.04v-5.46Zm17.92,9.12a5.144,5.144,0,0,1,.25-1.67,3.6,3.6,0,0,1,.69-1.23,2.938,2.938,0,0,1,1.03-.76,3.066,3.066,0,0,1,1.25-.26,3.066,3.066,0,0,1,1.25.26,2.938,2.938,0,0,1,1.03.76,3.6,3.6,0,0,1,.69,1.23,5.144,5.144,0,0,1,.25,1.67,5.144,5.144,0,0,1-.25,1.67,3.494,3.494,0,0,1-.69,1.22,2.994,2.994,0,0,1-1.03.75,3.066,3.066,0,0,1-1.25.26,3.066,3.066,0,0,1-1.25-.26,2.994,2.994,0,0,1-1.03-.75,3.494,3.494,0,0,1-.69-1.22A5.144,5.144,0,0,1,103.64-5.16Zm-1.8,0a6.792,6.792,0,0,0,.32,2.12,4.839,4.839,0,0,0,.96,1.71A4.416,4.416,0,0,0,104.7-.19a5.358,5.358,0,0,0,2.16.41,5.34,5.34,0,0,0,2.17-.41,4.437,4.437,0,0,0,1.57-1.14,4.839,4.839,0,0,0,.96-1.71,6.792,6.792,0,0,0,.32-2.12,6.887,6.887,0,0,0-.32-2.13,4.826,4.826,0,0,0-.96-1.72,4.545,4.545,0,0,0-1.57-1.15,5.229,5.229,0,0,0-2.17-.42,5.247,5.247,0,0,0-2.16.42,4.522,4.522,0,0,0-1.58,1.15,4.826,4.826,0,0,0-.96,1.72A6.887,6.887,0,0,0,101.84-5.16Zm12.04-5.18V0h1.7V-5.84a4.189,4.189,0,0,1,.19-1.29,2.93,2.93,0,0,1,.57-1.03,2.531,2.531,0,0,1,.95-.68,3.465,3.465,0,0,1,1.35-.24,2.081,2.081,0,0,1,1.54.56A2.054,2.054,0,0,1,120.74-7V0h1.7V-6.8a6.4,6.4,0,0,0-.17-1.53,2.9,2.9,0,0,0-.59-1.19,2.8,2.8,0,0,0-1.1-.78,4.487,4.487,0,0,0-1.7-.28,3.579,3.579,0,0,0-3.36,1.88h-.04v-1.64Zm11.18-3.94V0h1.7V-1.38h.04a2.739,2.739,0,0,0,.69.77,3.634,3.634,0,0,0,.87.49,4.722,4.722,0,0,0,.93.26,5.11,5.11,0,0,0,.85.08,4.8,4.8,0,0,0,2.07-.42,4.148,4.148,0,0,0,1.48-1.15,4.9,4.9,0,0,0,.88-1.71,7.3,7.3,0,0,0,.29-2.08,7.068,7.068,0,0,0-.3-2.08,5.256,5.256,0,0,0-.89-1.73,4.251,4.251,0,0,0-1.48-1.19,4.664,4.664,0,0,0-2.09-.44,4.927,4.927,0,0,0-1.98.39,2.545,2.545,0,0,0-1.32,1.25h-.04v-5.34Zm8,9.02a6.8,6.8,0,0,1-.16,1.48,3.915,3.915,0,0,1-.52,1.28,2.733,2.733,0,0,1-.95.9,2.907,2.907,0,0,1-1.47.34,3.155,3.155,0,0,1-1.5-.33,2.912,2.912,0,0,1-1.01-.87,3.638,3.638,0,0,1-.57-1.25,5.959,5.959,0,0,1-.18-1.47,6,6,0,0,1,.17-1.42,3.721,3.721,0,0,1,.55-1.25,2.926,2.926,0,0,1,.98-.89,2.919,2.919,0,0,1,1.46-.34,3.036,3.036,0,0,1,1.43.32,2.842,2.842,0,0,1,1,.86,3.805,3.805,0,0,1,.58,1.23A5.287,5.287,0,0,1,133.06-5.26Zm5.04.1a5.144,5.144,0,0,1,.25-1.67,3.6,3.6,0,0,1,.69-1.23,2.938,2.938,0,0,1,1.03-.76,3.066,3.066,0,0,1,1.25-.26,3.066,3.066,0,0,1,1.25.26,2.938,2.938,0,0,1,1.03.76,3.6,3.6,0,0,1,.69,1.23,5.144,5.144,0,0,1,.25,1.67,5.144,5.144,0,0,1-.25,1.67,3.494,3.494,0,0,1-.69,1.22,2.994,2.994,0,0,1-1.03.75,3.066,3.066,0,0,1-1.25.26,3.066,3.066,0,0,1-1.25-.26,2.994,2.994,0,0,1-1.03-.75,3.494,3.494,0,0,1-.69-1.22A5.144,5.144,0,0,1,138.1-5.16Zm-1.8,0a6.792,6.792,0,0,0,.32,2.12,4.839,4.839,0,0,0,.96,1.71,4.416,4.416,0,0,0,1.58,1.14,5.358,5.358,0,0,0,2.16.41,5.34,5.34,0,0,0,2.17-.41,4.437,4.437,0,0,0,1.57-1.14,4.839,4.839,0,0,0,.96-1.71,6.792,6.792,0,0,0,.32-2.12,6.887,6.887,0,0,0-.32-2.13,4.826,4.826,0,0,0-.96-1.72,4.545,4.545,0,0,0-1.57-1.15,5.229,5.229,0,0,0-2.17-.42,5.247,5.247,0,0,0-2.16.42,4.522,4.522,0,0,0-1.58,1.15,4.826,4.826,0,0,0-.96,1.72A6.887,6.887,0,0,0,136.3-5.16ZM157.5-.04a2.4,2.4,0,0,1-1.22.26,1.463,1.463,0,0,1-1.05-.37,1.608,1.608,0,0,1-.39-1.21,4.067,4.067,0,0,1-1.63,1.21,5.388,5.388,0,0,1-2.01.37,5.385,5.385,0,0,1-1.33-.16,3.092,3.092,0,0,1-1.09-.5,2.4,2.4,0,0,1-.73-.89,2.994,2.994,0,0,1-.27-1.33,3.037,3.037,0,0,1,.3-1.44,2.617,2.617,0,0,1,.79-.91,3.62,3.62,0,0,1,1.12-.53q.63-.18,1.29-.3.7-.14,1.33-.21a7.41,7.41,0,0,0,1.11-.2,1.849,1.849,0,0,0,.76-.38.928.928,0,0,0,.28-.73,1.7,1.7,0,0,0-.21-.9,1.44,1.44,0,0,0-.54-.52,2.2,2.2,0,0,0-.74-.24,5.588,5.588,0,0,0-.81-.06,3.6,3.6,0,0,0-1.8.41,1.74,1.74,0,0,0-.78,1.55h-1.7a3.672,3.672,0,0,1,.4-1.62,3.033,3.033,0,0,1,.96-1.07,4.028,4.028,0,0,1,1.37-.59,7.235,7.235,0,0,1,1.65-.18,9.679,9.679,0,0,1,1.39.1,3.633,3.633,0,0,1,1.25.41,2.4,2.4,0,0,1,.9.87,2.784,2.784,0,0,1,.34,1.46v5.32a3.979,3.979,0,0,0,.07.88q.07.28.47.28a1.684,1.684,0,0,0,.52-.1Zm-2.76-5.3a2.116,2.116,0,0,1-.84.35q-.52.11-1.09.18t-1.15.16a4.228,4.228,0,0,0-1.04.29,1.892,1.892,0,0,0-.75.57,1.6,1.6,0,0,0-.29,1.01,1.382,1.382,0,0,0,.17.71,1.417,1.417,0,0,0,.44.47,1.846,1.846,0,0,0,.63.26,3.5,3.5,0,0,0,.76.08,4.027,4.027,0,0,0,1.44-.23,3.029,3.029,0,0,0,.98-.58,2.288,2.288,0,0,0,.56-.76,1.922,1.922,0,0,0,.18-.77Zm4.28-5V0h1.7V-4.6a7.069,7.069,0,0,1,.2-1.77,3.393,3.393,0,0,1,.64-1.31,2.743,2.743,0,0,1,1.16-.82,4.808,4.808,0,0,1,1.74-.28v-1.8a3.821,3.821,0,0,0-2.28.56,4.605,4.605,0,0,0-1.52,1.86h-.04v-2.18Zm7.6,5.26a6.8,6.8,0,0,1,.16-1.48,3.915,3.915,0,0,1,.52-1.28,2.707,2.707,0,0,1,.96-.9,2.919,2.919,0,0,1,1.46-.34,3.155,3.155,0,0,1,1.5.33,2.911,2.911,0,0,1,1.01.87,3.638,3.638,0,0,1,.57,1.25,5.958,5.958,0,0,1,.18,1.47,6,6,0,0,1-.17,1.42,3.722,3.722,0,0,1-.55,1.25,2.926,2.926,0,0,1-.98.89,2.919,2.919,0,0,1-1.46.34,3.036,3.036,0,0,1-1.43-.32,2.842,2.842,0,0,1-1-.86,3.805,3.805,0,0,1-.58-1.23A5.287,5.287,0,0,1,166.62-5.08Zm8,5.08V-14.28h-1.7v5.32h-.04a2.738,2.738,0,0,0-.69-.77,3.92,3.92,0,0,0-.87-.5,4.367,4.367,0,0,0-.92-.27,5.036,5.036,0,0,0-.86-.08,4.706,4.706,0,0,0-2.07.43,4.249,4.249,0,0,0-1.48,1.16,4.9,4.9,0,0,0-.88,1.71,7.3,7.3,0,0,0-.29,2.08,7.068,7.068,0,0,0,.3,2.08,5.142,5.142,0,0,0,.89,1.72,4.3,4.3,0,0,0,1.48,1.18,4.664,4.664,0,0,0,2.09.44,5.04,5.04,0,0,0,1.98-.38,2.5,2.5,0,0,0,1.32-1.24h.04V0Zm4.42-12.2v-2.08h-1.7v2.08Zm-1.7,1.86V0h1.7V-10.34Zm4.34,0V0h1.7V-5.84a4.189,4.189,0,0,1,.19-1.29,2.93,2.93,0,0,1,.57-1.03,2.531,2.531,0,0,1,.95-.68,3.465,3.465,0,0,1,1.35-.24,2.081,2.081,0,0,1,1.54.56A2.054,2.054,0,0,1,188.54-7V0h1.7V-6.8a6.4,6.4,0,0,0-.17-1.53,2.9,2.9,0,0,0-.59-1.19,2.8,2.8,0,0,0-1.1-.78,4.487,4.487,0,0,0-1.7-.28,3.579,3.579,0,0,0-3.36,1.88h-.04v-1.64ZM201.72-.88v-9.46h-1.6v1.48h-.02a3.026,3.026,0,0,0-1.28-1.29,3.816,3.816,0,0,0-1.8-.43,4.6,4.6,0,0,0-2.26.51,4.385,4.385,0,0,0-1.48,1.3,5.154,5.154,0,0,0-.8,1.76,7.855,7.855,0,0,0-.24,1.89,6.848,6.848,0,0,0,.29,2.01,4.813,4.813,0,0,0,.87,1.66,4.227,4.227,0,0,0,1.44,1.13,4.555,4.555,0,0,0,2.02.42,4.132,4.132,0,0,0,1.89-.45,2.858,2.858,0,0,0,1.33-1.41h.04v.68A6.876,6.876,0,0,1,199.95.5a3.3,3.3,0,0,1-.55,1.23,2.666,2.666,0,0,1-.96.8,3.152,3.152,0,0,1-1.42.29,4.585,4.585,0,0,1-.88-.09,3.2,3.2,0,0,1-.85-.29,2.116,2.116,0,0,1-.66-.52,1.257,1.257,0,0,1-.29-.78h-1.7a2.673,2.673,0,0,0,.44,1.42,3.168,3.168,0,0,0,1.01.94,4.5,4.5,0,0,0,1.36.52,7.034,7.034,0,0,0,1.47.16,4.726,4.726,0,0,0,3.64-1.26A5.445,5.445,0,0,0,201.72-.88Zm-4.76-.5a2.6,2.6,0,0,1-1.4-.35,2.7,2.7,0,0,1-.9-.92,3.983,3.983,0,0,1-.48-1.27,7.122,7.122,0,0,1-.14-1.4,5.834,5.834,0,0,1,.17-1.42,3.52,3.52,0,0,1,.54-1.2,2.722,2.722,0,0,1,.95-.83,2.934,2.934,0,0,1,1.4-.31,2.7,2.7,0,0,1,1.36.32,2.649,2.649,0,0,1,.91.85,3.738,3.738,0,0,1,.51,1.19,5.667,5.667,0,0,1,.16,1.34,6.248,6.248,0,0,1-.17,1.44,4.2,4.2,0,0,1-.53,1.29,2.789,2.789,0,0,1-.95.92A2.756,2.756,0,0,1,196.96-1.38Z" transform="translate(10058 -2121)" fill="#050833"/>
    <rect id="Rectangle_2266" data-name="Rectangle 2266" width="221" height="50" transform="translate(10058 -2237)" fill="#11154a"/>
  </g>
</svg>
