<svg xmlns="http://www.w3.org/2000/svg" width="39.958" height="35.962" viewBox="0 0 39.958 35.962">
  <g id="icons8-news" transform="translate(-2 -3)">
    <path id="Path_10975" data-name="Path 10975" d="M33.966,34.966V8.994A5.993,5.993,0,0,0,27.972,3H7.994A5.993,5.993,0,0,0,2,8.994V32.968a5.993,5.993,0,0,0,5.994,5.994H37.962A4,4,0,0,1,33.966,34.966Z" transform="translate(0 0)" fill="#97bc8f"/>
    <path id="Path_10976" data-name="Path 10976" d="M22.981,16H7a2,2,0,0,1-2-2H5a2,2,0,0,1,2-2H22.981a2,2,0,0,1,2,2h0A2,2,0,0,1,22.981,16Z" transform="translate(2.994 8.981)" fill="#455a64"/>
    <path id="Path_10977" data-name="Path 10977" d="M22.981,20H7a2,2,0,0,1-2-2H5a2,2,0,0,1,2-2H22.981a2,2,0,0,1,2,2h0A2,2,0,0,1,22.981,20Z" transform="translate(2.994 12.972)" fill="#455a64"/>
    <path id="Path_10978" data-name="Path 10978" d="M22,7H18V30.975a4,4,0,0,0,4,4h0a4,4,0,0,0,4-4V11A4,4,0,0,0,22,7Z" transform="translate(15.966 3.992)" fill="#455a64"/>
    <path id="Path_10979" data-name="Path 10979" d="M21.982,7H8a3,3,0,0,0,0,5.994H21.982a3,3,0,1,0,0-5.994Z" transform="translate(2.994 3.992)" fill="#455a64"/>
  </g>
</svg>
