<svg xmlns="http://www.w3.org/2000/svg" width="19.797" height="30.17" viewBox="0 0 19.797 30.17">
  <g id="icons8-myspace" transform="translate(-6.95 -2.17)">
    <circle id="Ellipse_301" data-name="Ellipse 301" cx="4.5" cy="4.5" r="4.5" transform="translate(16.374 2.17)" fill="#97bc8f"/>
    <circle id="Ellipse_302" data-name="Ellipse 302" cx="4" cy="4" r="4" transform="translate(8.373 3.17)" fill="#455a64"/>
    <path id="Path_10991" data-name="Path 10991" d="M21.1,28.721H15.034A3.033,3.033,0,0,1,12,25.687V15.068A6.068,6.068,0,0,1,18.068,9h0a6.068,6.068,0,0,1,6.068,6.068V25.687A3.033,3.033,0,0,1,21.1,28.721Z" transform="translate(2.611 3.619)" fill="#97bc8f"/>
    <path id="Path_10993" data-name="Path 10993" d="M12.336,9C9.7,9.182,7.2,11.14,7.026,12.852s0,4.858,0,8.284v1.517a3.033,3.033,0,0,0,3.034,3.034h4.551a3.033,3.033,0,0,0,3.034-3.034V14.309A5.309,5.309,0,0,0,12.336,9Z" transform="translate(0 3.619)" fill="#455a64"/>
  </g>
</svg>
