<svg xmlns="http://www.w3.org/2000/svg" width="48" height="52" viewBox="0 0 48 52">
  <g id="noun_Research_3571128" transform="translate(-8 -6)">
    <g id="Group_10807" data-name="Group 10807" transform="translate(0 -499)">
      <path id="Path_11022" data-name="Path 11022" d="M49,536H45v13a1,1,0,0,0,1,1h2a1,1,0,0,0,1-1Z" fill="#455a64" fill-rule="evenodd"/>
      <rect id="Rectangle_2222" data-name="Rectangle 2222" width="2" height="3" transform="translate(46 531)" fill="#455a64"/>
      <path id="Path_11023" data-name="Path 11023" d="M47,511a9,9,0,1,1-9,9A9,9,0,0,1,47,511Zm0,3a6,6,0,1,0,6,6A6,6,0,0,0,47,514Z" fill="#455a64" fill-rule="evenodd"/>
      <circle id="Ellipse_856" data-name="Ellipse 856" cx="4" cy="4" r="4" transform="translate(43 516)" fill="#455a64"/>
      <path id="Path_11024" data-name="Path 11024" d="M46,509.045V506a1,1,0,0,0-1-1H9a1,1,0,0,0-1,1v50a1,1,0,0,0,1,1H45a1,1,0,0,0,1-1v-4a3,3,0,0,1-3-3V535a1,1,0,0,1,1-1v-3.415a11,11,0,0,1,2-21.54ZM12,551H34a1,1,0,0,0,0-2H12a1,1,0,0,0,0,2Zm0-7H34a1,1,0,0,0,0-2H12a1,1,0,0,0,0,2Zm0-7H34a1,1,0,0,0,0-2H12a1,1,0,0,0,0,2Zm0-7H34a1,1,0,0,0,0-2H12a1,1,0,0,0,0,2Zm18-9h1a1,1,0,0,1,0,2H12a1,1,0,0,1,0-2h1v-5a1,1,0,0,1,1-1h4v-1a1,1,0,0,1,1-1h4v-1a1,1,0,0,1,1-1h5a1,1,0,0,1,1,1Z" fill="#97bc8f" fill-rule="evenodd"/>
      <rect id="Rectangle_2223" data-name="Rectangle 2223" width="3" height="4" transform="translate(15 517)" fill="#455a64"/>
      <rect id="Rectangle_2224" data-name="Rectangle 2224" width="3" height="6" transform="translate(20 515)" fill="#455a64"/>
      <rect id="Rectangle_2225" data-name="Rectangle 2225" width="3" height="8" transform="translate(25 513)" fill="#455a64"/>
    </g>
  </g>
</svg>
