<svg xmlns="http://www.w3.org/2000/svg" width="26.187" height="26.187" viewBox="0 0 26.187 26.187"><defs><style>.a{fill:none;}.b{fill:#ccc;}</style></defs><path class="a" d="M0,0H26.187V26.187H0Z"/><path class="b" d="M20.642,13.9a7.719,7.719,0,0,0,.065-1.026,6.3,6.3,0,0,0-.076-1.026l2.215-1.724a.535.535,0,0,0,.131-.666L20.882,5.837a.533.533,0,0,0-.644-.24L17.63,6.645a7.708,7.708,0,0,0-1.768-1.026L15.47,2.847a.528.528,0,0,0-.524-.447h-4.19a.517.517,0,0,0-.513.447L9.85,5.619A7.878,7.878,0,0,0,8.083,6.645L5.475,5.6a.521.521,0,0,0-.644.24L2.747,9.46a.5.5,0,0,0,.131.666l2.215,1.724A6.071,6.071,0,0,0,5.071,13.9L2.856,15.625a.535.535,0,0,0-.131.666L4.82,19.913a.533.533,0,0,0,.644.24l2.608-1.047A7.708,7.708,0,0,0,9.84,20.131l.393,2.771a.536.536,0,0,0,.524.447h4.19a.509.509,0,0,0,.513-.447l.393-2.771a7.484,7.484,0,0,0,1.768-1.026l2.608,1.047a.521.521,0,0,0,.644-.24l2.095-3.623a.505.505,0,0,0-.131-.666Zm-7.791,2.9a3.928,3.928,0,1,1,3.928-3.928A3.94,3.94,0,0,1,12.851,16.8Z" transform="translate(0.243 0.219)"/></svg>