<svg xmlns="http://www.w3.org/2000/svg" width="46.014" height="36" viewBox="0 0 46.014 36"><defs><style>.a{fill:none;stroke:#000;fill-rule:evenodd;}</style></defs><path class="a" d="M27,21.5q-1.143,0-1.675,0A20.273,20.273,0,0,0,19,22.2q-1.554.666-5.976,4.921A45.739,45.739,0,0,0,5.64,28.531,6.107,6.107,0,0,0,1.773,31.7a7.83,7.83,0,0,0-.273,2.7v.352A1.758,1.758,0,0,0,3.258,36.5H6.5a4,4,0,0,0,4,4H11a4,4,0,0,0,4-4H33a4,4,0,0,0,4,4h.5a4,4,0,0,0,4-4l2.829-.2A2.466,2.466,0,0,0,46.5,34a17.652,17.652,0,0,0-.647-4.574,3.359,3.359,0,0,0-2.11-2.531c-.748-.191-1.5-.271-2.244-.4m4-3v-10h-16v10Zm-8-7.5v0Zm-6-2.5v-3c0-2.761,1.919-5,4.286-5h3.429c2.367,0,4.286,2.239,4.286,5v3" transform="translate(-1 -5)"/></svg>