<svg xmlns="http://www.w3.org/2000/svg" width="40.621" height="48.721" viewBox="0 0 40.621 48.721">
  <g id="noun_ux_1608676" transform="translate(-15.7 -9)">
    <g id="Group_10809" data-name="Group 10809" transform="translate(15.7 9)">
      <path id="Path_11025" data-name="Path 11025" d="M30.6,49.183H53.012L41.806,40.9Z" transform="translate(-21.526 -21.472)" fill="#455a64"/>
      <path id="Path_11026" data-name="Path 11026" d="M53.012,23.5H30.6l11.206,8.283Z" transform="translate(-21.526 -14.669)" fill="#455a64"/>
      <path id="Path_11027" data-name="Path 11027" d="M27.5,25V42.052l11.571-8.526Z" transform="translate(-20.314 -15.256)" fill="#455a64"/>
      <path id="Path_11028" data-name="Path 11028" d="M63.071,42.052V25L51.5,33.526Z" transform="translate(-29.697 -15.256)" fill="#455a64"/>
      <path id="Path_11029" data-name="Path 11029" d="M15.7,10.218V56.5a1.222,1.222,0,0,0,1.218,1.218H55.1A1.222,1.222,0,0,0,56.321,56.5V10.218A1.222,1.222,0,0,0,55.1,9H16.918A1.222,1.222,0,0,0,15.7,10.218ZM49.988,51.936H21.973a.914.914,0,1,1,0-1.827H49.988a.914.914,0,0,1,0,1.827Zm0-6.09H21.973a.914.914,0,1,1,0-1.827H49.988a.914.914,0,0,1,0,1.827Zm.914-8.222a.937.937,0,0,1-.914.914H21.973a.937.937,0,0,1-.914-.914V16.917A.937.937,0,0,1,21.973,16H49.988a.937.937,0,0,1,.914.914Z" transform="translate(-15.7 -9)" fill="#97bc8f"/>
    </g>
  </g>
</svg>
